<svg width="180" height="80" viewBox="0 0 180 80" fill="none" xmlns="http://www.w3.org/2000/svg">
<g clip-path="url(#clip0_120_9)">
<path fill-rule="evenodd" clip-rule="evenodd" d="M19.8141 1.02762C21.378 2.08447 22.4887 3.93396 22.8514 6.16509C23.1687 8.04392 23.1914 26.0104 22.8741 26.2746C22.6927 26.4214 18.25 23.5738 17.502 22.8105C17.2754 22.605 17.2074 20.6968 17.2074 15.0896V7.63292H11.5407H5.87404V17.5849V27.5369L8.88871 29.5919L9.37843 29.9261C10.9053 30.9679 12.432 32.0096 12.9234 32.3808C13.4674 32.7625 15.3487 34.0541 17.0714 35.2284C20.6074 37.6357 21.6954 38.7513 22.4661 40.7475C22.9872 42.1269 22.9874 42.1566 23.0553 56.6473L23.0554 56.659C23.1234 66.6401 23.0554 71.8073 22.8741 73.1284C22.5567 75.5651 21.4461 77.5906 19.8141 78.6473C18.7038 79.4101 18.6807 79.4106 11.9567 79.4984H11.9487C7.82338 79.5573 4.87668 79.4695 4.35538 79.2934C1.99803 78.4712 0.547363 76.0934 0.320695 72.6584C0.275361 71.6895 0.162028 65.0551 0.0940278 57.8918C0.00336127 47.4703 0.0260279 44.9162 0.252695 44.9162C0.41136 44.9162 1.72603 45.7676 3.15403 46.7657L5.7607 48.5858L5.87404 60.2701L5.98738 71.954H11.5407H17.094L17.1621 57.8629L17.2074 43.8006L14.8954 42.186C13.8438 41.4692 12.2817 40.4023 11.0645 39.571L10.294 39.0448C1.9527 33.3203 1.54469 32.9679 0.592695 30.6781C0.116695 29.5332 0.0940278 29.1515 0.0260279 18.2601C-0.0646389 5.43115 0.00336115 4.87337 1.54469 2.58353C3.15403 0.234972 4.01535 0.0294783 12.13 0.0881909L18.4767 0.146911L19.8141 1.02762ZM59.2994 0.46983C59.3899 0.763399 59.0729 1.40925 58.3928 2.28997C58.2604 2.46757 58.1381 2.61757 58.025 2.75626C57.8822 2.93137 57.7537 3.08853 57.6387 3.26033C56.6388 4.75537 56.6396 7.36614 56.6462 32.6964V32.7436C56.647 34.9508 56.6474 37.3303 56.6474 39.8962V73.8623L57.2369 75.3884C57.5539 76.2401 58.1659 77.2673 58.5968 77.6784C59.0272 78.119 59.3675 78.7062 59.3675 78.9995C59.3675 79.5279 59.0954 79.5573 53.7008 79.5573C48.3739 79.5573 48.0341 79.5279 48.0341 79.029C48.0341 78.7356 48.3286 78.2068 48.7142 77.8545C49.0769 77.5023 49.6661 76.5923 50.0059 75.829L50.6408 74.4201L50.7089 61.5618L50.7766 48.7033L47.8754 50.6115C42.3674 54.2517 39.7606 56.1012 39.4661 56.6001C39.2392 56.9818 39.1715 58.8606 39.2392 65.3195L39.3074 73.539L39.9422 75.2418C40.3049 76.1812 40.9394 77.2968 41.3702 77.7373C41.8006 78.1779 42.1409 78.7645 42.1409 79.029C42.1409 79.5279 41.7101 79.5573 36.474 79.5573C31.2381 79.5573 30.8074 79.5279 30.8074 79.029C30.8074 78.7645 31.1474 78.1779 31.578 77.7373C31.986 77.2968 32.598 76.2401 32.938 75.4179L33.5274 73.8623V40.3365C33.5274 38.1509 33.527 36.0993 33.5266 34.1731C33.5218 7.64164 33.5213 4.89948 34.5703 3.31732C34.6912 3.13497 34.826 2.96803 34.9764 2.78185C35.0691 2.66714 35.1679 2.54482 35.2727 2.40739C36.3607 1.02762 36.9954 0.587266 38.514 0.293693C39.0809 0.176268 43.9541 0.0588343 49.3486 0.0294783C58.0754 0.00012207 59.1635 0.0588343 59.2994 0.46983ZM77.1832 0.411126C77.2514 0.645977 76.8434 1.40925 76.2089 2.23124C76.0835 2.39534 75.9662 2.53893 75.857 2.67308C75.6883 2.8799 75.5381 3.06429 75.4041 3.26673C74.3036 4.93035 74.309 7.81403 74.3613 34.393V34.4076C74.3652 36.2743 74.369 38.2578 74.3729 40.3659C74.3775 43.0223 74.381 45.4758 74.3845 47.7429C74.4213 72.2779 74.4252 74.9679 75.4599 76.4856C75.5876 76.6729 75.7305 76.8418 75.8911 77.0318C76.0227 77.1873 76.1659 77.3568 76.3219 77.5612C77.0249 78.5301 77.2966 79.0584 77.1379 79.264C76.7981 79.704 65.8955 79.5279 65.7821 79.0584C65.7368 78.8823 66.1219 78.2362 66.6209 77.5906C67.1419 76.974 67.7992 75.9468 68.0714 75.3006L68.5475 74.1262V39.7788C68.5475 36.5917 68.5486 33.6911 68.5498 31.0499V31.0327C68.5599 7.07048 68.561 4.48254 67.5604 3.13414C67.4392 2.97092 67.3034 2.82583 67.1512 2.66322C67.0111 2.51391 66.8574 2.34974 66.6886 2.14318C64.9661 0.0588342 65.0795 0.00012207 71.4941 0.00012207C76.0274 0.00012207 77.0926 0.0881993 77.1832 0.411126ZM92.9369 3.96331C93.3902 6.04764 94.4555 10.8035 95.2939 14.5318C96.1328 18.2308 96.9035 21.6655 96.9941 22.1646C97.4926 24.6599 104.043 53.9581 104.225 54.4572C104.587 55.426 104.542 6.69348 104.202 5.16693C104.021 4.43301 103.454 3.34681 102.729 2.37803C101.822 1.14504 101.595 0.675333 101.799 0.381762C101.981 0.0881993 103.25 0.00012207 107.466 0.00012207C113.654 0.00012207 113.835 0.0881909 112.226 2.02575C111.727 2.61288 111.093 3.6991 110.798 4.43302L110.254 5.72476V39.9255V74.1262L110.866 75.4768C111.206 76.2106 111.863 77.2673 112.317 77.7668C113.813 79.4984 113.586 79.5868 107.171 79.4984C103.363 79.4401 101.414 79.2934 101.369 79.0879C101.323 78.9118 101.55 78.3829 101.89 77.9134C103.25 75.9468 103.431 73.9206 102.57 70.4568C102.253 69.2529 101.55 66.1412 100.983 63.5579C100.672 62.1384 100.114 59.6279 99.4904 56.8218L99.4897 56.8173L99.4862 56.8023C98.976 54.5071 98.4224 52.0151 97.9235 49.7601C96.7901 44.7401 95.0899 37.0779 94.1152 32.6744C93.0275 27.7131 92.2792 24.8654 92.1662 25.1003C92.0752 25.3351 92.0299 36.3146 92.0528 49.5253L92.1209 73.539L92.7554 75.2123C93.1181 76.1518 93.7529 77.2968 94.2062 77.7668C94.7501 78.3245 94.9769 78.794 94.8859 79.0879C94.7501 79.4984 94.0246 79.5573 89.1739 79.5573C85.2093 79.5573 83.7391 79.5573 83.6117 79.0234C83.5366 78.709 83.928 78.209 84.5501 77.4145C84.6952 77.2262 84.828 77.0745 84.9495 76.9356C85.08 76.7868 85.1973 76.6523 85.303 76.5045C86.244 75.1834 86.2475 72.7484 86.2827 48.6023V48.5847C86.2862 46.1262 86.2901 43.4428 86.2955 40.5127C86.3408 14.9428 86.2955 6.28248 86.0915 5.34308C85.9099 4.55044 85.4113 3.46424 84.7088 2.49546C83.9729 1.44492 83.5436 0.831516 83.647 0.479698C83.7925 -0.0139838 84.9875 0.00741239 87.8594 0.0588432L92.0981 0.146911L92.9369 3.96331ZM147.926 0.352405C148.13 0.763399 148.266 9.8347 148.085 10.6273C147.903 11.42 147.473 11.2732 146.611 10.0989C146.203 9.51176 145.342 8.71914 144.707 8.33748C143.665 7.69164 143.28 7.63292 140.106 7.63292H136.661L136.706 41.0118C136.712 44.0434 136.716 46.8079 136.719 49.3298V49.3324C136.752 72.6856 136.755 75.2401 137.743 76.6068C137.865 76.7745 138.001 76.9245 138.154 77.0929C138.292 77.2445 138.444 77.4112 138.61 77.6201C139.2 78.3245 139.585 79.0584 139.517 79.2345C139.404 79.4695 137.59 79.5573 133.692 79.5573C128.478 79.5573 128.047 79.5279 128.047 79.029C128.047 78.7645 128.387 78.1779 128.818 77.7373C129.226 77.2968 129.838 76.2401 130.178 75.4179L130.767 73.8623V40.7182V7.5742L127.095 7.69164C122.947 7.80909 122.086 8.13198 120.862 10.1283C120.522 10.686 120.046 11.1558 119.842 11.1558C119.457 11.1558 119.434 10.7154 119.434 5.78342C119.434 2.81839 119.502 0.293693 119.593 0.205615C119.661 0.088191 126.03 0.00012207 133.737 0.00012207C144.685 0.00012207 147.79 0.088191 147.926 0.352405ZM174.967 0.323049C176.758 0.82211 178.141 2.17254 178.934 4.25688L179.614 6.01831L179.682 16.7042C179.75 28.5938 179.659 29.8268 178.503 31.7936C177.529 33.467 177.234 33.6725 165.447 41.687L162.614 43.6245L162.546 57.8334L162.501 72.0712L168.168 71.9834L173.834 71.8951V60.3579C173.834 51.4628 173.902 48.7326 174.129 48.4978C174.696 47.9106 179.115 44.9162 179.433 44.9162C179.705 44.9162 179.75 47.0886 179.659 59.2129C179.614 69.7818 179.523 73.8329 179.297 74.684C178.866 76.3868 177.393 78.2656 175.92 78.9701C174.718 79.5573 174.288 79.5868 167.737 79.4984C161.118 79.4106 160.755 79.3812 159.871 78.7645C159.373 78.4123 158.58 77.5906 158.126 76.9445C156.63 74.8018 156.607 74.4784 156.607 57.804C156.607 43.5658 156.63 42.8025 157.061 41.3053C157.899 38.4283 157.899 38.4283 169.527 30.4433C169.819 30.2413 170.12 30.0335 170.417 29.8283C171.458 29.1089 172.454 28.421 172.86 28.124L173.834 27.4489V17.5262V7.63292H168.168H162.501L162.478 14.2969C162.433 20.4913 162.41 21.5775 162.319 22.5169C162.274 22.8105 157.605 26.1278 156.879 26.3626C156.403 26.5388 156.585 5.72475 157.061 4.69723C158.239 2.11382 159.69 0.645977 161.458 0.264337C163.045 -0.0585902 173.721 -0.0292342 174.967 0.323049ZM50.5177 39.7215L39.2311 47.1401C39.2311 47.1401 39.0259 35.0298 39.0259 27.2688C39.0259 19.5079 39.0259 7.92742 39.2311 7.39753C39.4363 6.86759 50.5177 7.13259 50.5177 7.13259V23.427V39.7215Z" fill="white"/>
</g>
<defs>
<clipPath id="clip0_120_9">
<rect width="180" height="80" fill="white"/>
</clipPath>
</defs>
</svg>
