<svg width="378" height="365" viewBox="0 0 378 365" fill="none" xmlns="http://www.w3.org/2000/svg">
<path d="M10.68 77.8949V88.3949H9.21001V79.1999H3.12001V88.3949H1.63501V77.8949H10.68ZM18.6793 88.5149C17.6193 88.5149 16.6643 88.2849 15.8143 87.8249C14.9643 87.3549 14.2943 86.7099 13.8043 85.8899C13.3243 85.0699 13.0843 84.1549 13.0843 83.1449C13.0843 82.1349 13.3243 81.2199 13.8043 80.3999C14.2943 79.5799 14.9643 78.9399 15.8143 78.4799C16.6643 78.0099 17.6193 77.7749 18.6793 77.7749C19.7293 77.7749 20.6793 78.0099 21.5293 78.4799C22.3793 78.9399 23.0443 79.5799 23.5243 80.3999C24.0043 81.2099 24.2443 82.1249 24.2443 83.1449C24.2443 84.1649 24.0043 85.0849 23.5243 85.9049C23.0443 86.7149 22.3793 87.3549 21.5293 87.8249C20.6793 88.2849 19.7293 88.5149 18.6793 88.5149ZM18.6793 87.1799C19.4493 87.1799 20.1393 87.0049 20.7493 86.6549C21.3693 86.3049 21.8543 85.8249 22.2043 85.2149C22.5643 84.5949 22.7443 83.9049 22.7443 83.1449C22.7443 82.3849 22.5643 81.6999 22.2043 81.0899C21.8543 80.4699 21.3693 79.9849 20.7493 79.6349C20.1393 79.2849 19.4493 79.1099 18.6793 79.1099C17.9093 79.1099 17.2093 79.2849 16.5793 79.6349C15.9593 79.9849 15.4693 80.4699 15.1093 81.0899C14.7593 81.6999 14.5843 82.3849 14.5843 83.1449C14.5843 83.9049 14.7593 84.5949 15.1093 85.2149C15.4693 85.8249 15.9593 86.3049 16.5793 86.6549C17.2093 87.0049 17.9093 87.1799 18.6793 87.1799ZM36.3812 87.0899V90.6899H34.9862V88.3949H26.3462L26.3312 90.6899H24.9362L24.9512 87.0899H25.4612C26.1212 87.0499 26.5862 86.5299 26.8562 85.5299C27.1262 84.5199 27.2912 83.0999 27.3512 81.2699L27.4562 77.8949H34.8362V87.0899H36.3812ZM28.6712 81.4049C28.6212 82.8849 28.5012 84.1099 28.3112 85.0799C28.1312 86.0499 27.8362 86.7199 27.4262 87.0899H33.3512V79.1999H28.7462L28.6712 81.4049ZM52.1952 88.3949L52.1802 80.7449L48.3852 87.1199H47.6952L43.9002 80.7899V88.3949H42.4602V77.8949H43.6902L48.0702 85.2749L52.3902 77.8949H53.6202L53.6352 88.3949H52.1952ZM63.7286 85.7699H58.1486L56.9936 88.3949H55.4486L60.2036 77.8949H61.6886L66.4586 88.3949H64.8836L63.7286 85.7699ZM63.2036 84.5699L60.9386 79.4249L58.6736 84.5699H63.2036ZM81.4257 77.8949V88.3949H68.2707V77.8949H69.7557V87.0899H74.1207V77.8949H75.5907V87.0899H79.9557V77.8949H81.4257ZM84.6916 77.8949H86.1766V85.9949L92.3866 77.8949H93.7666V88.3949H92.2966V80.3099L86.0716 88.3949H84.6916V77.8949ZM106.07 77.8949V88.3949H104.57V83.7149H98.5403V88.3949H97.0403V77.8949H98.5403V82.4099H104.57V77.8949H106.07ZM113.005 83.7749H110.815V88.3949H109.345V77.8949H110.815V82.4549H113.035L116.335 77.8949H117.94L114.19 82.9799L118.12 88.3949H116.41L113.005 83.7749ZM128.326 77.8949L123.661 86.5499C123.291 87.2399 122.856 87.7549 122.356 88.0949C121.856 88.4349 121.311 88.6049 120.721 88.6049C120.261 88.6049 119.791 88.4999 119.311 88.2899L119.701 87.0899C120.071 87.2199 120.401 87.2849 120.691 87.2849C121.351 87.2849 121.896 86.9349 122.326 86.2349L122.566 85.8599L118.336 77.8949H119.941L123.346 84.5549L126.841 77.8949H128.326Z" fill="black"/>
<path d="M3.16005 57.0865C3.84672 57.1532 4.37005 57.3665 4.73005 57.7265C5.09005 58.0798 5.27005 58.5332 5.27005 59.0865C5.27005 59.4865 5.17005 59.8498 4.97005 60.1765C4.77005 60.4965 4.47005 60.7532 4.07005 60.9465C3.67672 61.1332 3.19338 61.2265 2.62005 61.2265C2.12005 61.2265 1.64005 61.1532 1.18005 61.0065C0.720049 60.8532 0.343382 60.6432 0.0500488 60.3765L0.510049 59.5865C0.750049 59.8132 1.05672 59.9965 1.43005 60.1365C1.80338 60.2698 2.20005 60.3365 2.62005 60.3365C3.14005 60.3365 3.54338 60.2265 3.83005 60.0065C4.12338 59.7865 4.27005 59.4832 4.27005 59.0965C4.27005 58.7098 4.12672 58.4098 3.84005 58.1965C3.55338 57.9832 3.12005 57.8765 2.54005 57.8765H1.98005V57.1765L3.74005 55.0165H0.370049V54.1465H4.99005V54.8265L3.16005 57.0865ZM9.06271 61.2265C8.50937 61.2265 8.01604 61.0865 7.58271 60.8065C7.15604 60.5198 6.81937 60.1065 6.57271 59.5665C6.32604 59.0265 6.20271 58.3865 6.20271 57.6465C6.20271 56.9065 6.32604 56.2665 6.57271 55.7265C6.81937 55.1865 7.15604 54.7765 7.58271 54.4965C8.01604 54.2098 8.50937 54.0665 9.06271 54.0665C9.60937 54.0665 10.096 54.2098 10.5227 54.4965C10.956 54.7765 11.296 55.1865 11.5427 55.7265C11.7893 56.2665 11.9127 56.9065 11.9127 57.6465C11.9127 58.3865 11.7893 59.0265 11.5427 59.5665C11.296 60.1065 10.956 60.5198 10.5227 60.8065C10.096 61.0865 9.60937 61.2265 9.06271 61.2265ZM9.06271 60.3365C9.62271 60.3365 10.0693 60.1065 10.4027 59.6465C10.7427 59.1865 10.9127 58.5198 10.9127 57.6465C10.9127 56.7732 10.7427 56.1065 10.4027 55.6465C10.0693 55.1865 9.62271 54.9565 9.06271 54.9565C8.49604 54.9565 8.04271 55.1865 7.70271 55.6465C7.36937 56.1065 7.20271 56.7732 7.20271 57.6465C7.20271 58.5198 7.36937 59.1865 7.70271 59.6465C8.04271 60.1065 8.49604 60.3365 9.06271 60.3365ZM13.0309 57.9865H15.7209V58.8165H13.0309V57.9865ZM19.8575 56.8965C20.3175 56.8965 20.7275 56.9832 21.0875 57.1565C21.4542 57.3298 21.7408 57.5798 21.9474 57.9065C22.1541 58.2265 22.2575 58.5965 22.2575 59.0165C22.2575 59.4565 22.1475 59.8432 21.9275 60.1765C21.7142 60.5098 21.4174 60.7698 21.0374 60.9565C20.6641 61.1365 20.2441 61.2265 19.7774 61.2265C18.8374 61.2265 18.1109 60.9232 17.5975 60.3165C17.0909 59.7098 16.8375 58.8498 16.8375 57.7365C16.8375 56.9565 16.9741 56.2932 17.2474 55.7465C17.5274 55.1932 17.9141 54.7765 18.4074 54.4965C18.9074 54.2098 19.4874 54.0665 20.1474 54.0665C20.4874 54.0665 20.8075 54.1032 21.1075 54.1765C21.4075 54.2432 21.6674 54.3432 21.8874 54.4765L21.5075 55.2565C21.1742 55.0365 20.7274 54.9265 20.1674 54.9265C19.4408 54.9265 18.8708 55.1532 18.4574 55.6065C18.0441 56.0532 17.8375 56.7065 17.8375 57.5665C17.8375 57.6732 17.8409 57.7565 17.8475 57.8165C18.0475 57.5165 18.3208 57.2898 18.6674 57.1365C19.0208 56.9765 19.4175 56.8965 19.8575 56.8965ZM19.7374 60.4165C20.1974 60.4165 20.5709 60.2932 20.8575 60.0465C21.1442 59.7998 21.2874 59.4698 21.2874 59.0565C21.2874 58.6432 21.1409 58.3165 20.8475 58.0765C20.5609 57.8298 20.1742 57.7065 19.6875 57.7065C19.3742 57.7065 19.0942 57.7665 18.8475 57.8865C18.6075 58.0065 18.4174 58.1698 18.2774 58.3765C18.1441 58.5832 18.0774 58.8132 18.0774 59.0665C18.0774 59.3132 18.1409 59.5398 18.2675 59.7465C18.4009 59.9465 18.5909 60.1098 18.8375 60.2365C19.0909 60.3565 19.3908 60.4165 19.7374 60.4165ZM25.8694 61.2265C25.3161 61.2265 24.8226 61.0865 24.3893 60.8065C23.9626 60.5198 23.626 60.1065 23.3793 59.5665C23.1326 59.0265 23.0093 58.3865 23.0093 57.6465C23.0093 56.9065 23.1326 56.2665 23.3793 55.7265C23.626 55.1865 23.9626 54.7765 24.3893 54.4965C24.8226 54.2098 25.3161 54.0665 25.8694 54.0665C26.4161 54.0665 26.9026 54.2098 27.3293 54.4965C27.7626 54.7765 28.1026 55.1865 28.3493 55.7265C28.596 56.2665 28.7193 56.9065 28.7193 57.6465C28.7193 58.3865 28.596 59.0265 28.3493 59.5665C28.1026 60.1065 27.7626 60.5198 27.3293 60.8065C26.9026 61.0865 26.4161 61.2265 25.8694 61.2265ZM25.8694 60.3365C26.4294 60.3365 26.876 60.1065 27.2093 59.6465C27.5493 59.1865 27.7193 58.5198 27.7193 57.6465C27.7193 56.7732 27.5493 56.1065 27.2093 55.6465C26.876 55.1865 26.4294 54.9565 25.8694 54.9565C25.3027 54.9565 24.8493 55.1865 24.5093 55.6465C24.176 56.1065 24.0093 56.7732 24.0093 57.6465C24.0093 58.5198 24.176 59.1865 24.5093 59.6465C24.8493 60.1065 25.3027 60.3365 25.8694 60.3365ZM39.4649 61.1465L39.4548 56.0465L36.9249 60.2965H36.4649L33.9348 56.0765V61.1465H32.9748V54.1465H33.7948L36.7149 59.0665L39.5948 54.1465H40.4148L40.4249 61.1465H39.4649ZM42.6037 54.1465H43.5938V59.5465L47.7337 54.1465H48.6538V61.1465H47.6737V55.7565L43.5238 61.1465H42.6037V54.1465ZM56.8561 54.1465V61.1465H55.8561V58.0265H51.8362V61.1465H50.8362V54.1465H51.8362V57.1565H55.8561V54.1465H56.8561ZM64.7692 54.1465L61.6592 59.9165C61.4126 60.3765 61.1226 60.7198 60.7892 60.9465C60.4559 61.1732 60.0926 61.2865 59.6992 61.2865C59.3926 61.2865 59.0793 61.2165 58.7593 61.0765L59.0192 60.2765C59.2659 60.3632 59.4859 60.4065 59.6792 60.4065C60.1192 60.4065 60.4826 60.1732 60.7692 59.7065L60.9292 59.4565L58.1092 54.1465H59.1792L61.4492 58.5865L63.7793 54.1465H64.7692ZM70.6852 55.0165H68.2852V61.1465H67.3052V55.0165H64.9152V54.1465H70.6852V55.0165Z" fill="#787878"/>
<path d="M3.16005 5.94C3.84672 6.00667 4.37005 6.22 4.73005 6.58C5.09005 6.93333 5.27005 7.38667 5.27005 7.94C5.27005 8.34 5.17005 8.70333 4.97005 9.03C4.77005 9.35 4.47005 9.60667 4.07005 9.8C3.67672 9.98667 3.19338 10.08 2.62005 10.08C2.12005 10.08 1.64005 10.0067 1.18005 9.86C0.720049 9.70667 0.343382 9.49667 0.0500488 9.23L0.510049 8.44C0.750049 8.66667 1.05672 8.85 1.43005 8.99C1.80338 9.12333 2.20005 9.19 2.62005 9.19C3.14005 9.19 3.54338 9.08 3.83005 8.86C4.12338 8.64 4.27005 8.33667 4.27005 7.95C4.27005 7.56333 4.12672 7.26333 3.84005 7.05C3.55338 6.83667 3.12005 6.73 2.54005 6.73H1.98005V6.03L3.74005 3.87H0.370049V3H4.99005V3.68L3.16005 5.94ZM9.06271 10.08C8.50937 10.08 8.01604 9.94 7.58271 9.66C7.15604 9.37333 6.81937 8.96 6.57271 8.42C6.32604 7.88 6.20271 7.24 6.20271 6.5C6.20271 5.76 6.32604 5.12 6.57271 4.58C6.81937 4.04 7.15604 3.63 7.58271 3.35C8.01604 3.06333 8.50937 2.92 9.06271 2.92C9.60937 2.92 10.096 3.06333 10.5227 3.35C10.956 3.63 11.296 4.04 11.5427 4.58C11.7893 5.12 11.9127 5.76 11.9127 6.5C11.9127 7.24 11.7893 7.88 11.5427 8.42C11.296 8.96 10.956 9.37333 10.5227 9.66C10.096 9.94 9.60937 10.08 9.06271 10.08ZM9.06271 9.19C9.62271 9.19 10.0693 8.96 10.4027 8.5C10.7427 8.04 10.9127 7.37333 10.9127 6.5C10.9127 5.62667 10.7427 4.96 10.4027 4.5C10.0693 4.04 9.62271 3.81 9.06271 3.81C8.49604 3.81 8.04271 4.04 7.70271 4.5C7.36937 4.96 7.20271 5.62667 7.20271 6.5C7.20271 7.37333 7.36937 8.04 7.70271 8.5C8.04271 8.96 8.49604 9.19 9.06271 9.19ZM13.0309 6.84H15.7209V7.67H13.0309V6.84ZM19.8575 5.75C20.3175 5.75 20.7275 5.83667 21.0875 6.01C21.4542 6.18333 21.7408 6.43333 21.9474 6.76C22.1541 7.08 22.2575 7.45 22.2575 7.87C22.2575 8.31 22.1475 8.69667 21.9275 9.03C21.7142 9.36333 21.4174 9.62333 21.0374 9.81C20.6641 9.99 20.2441 10.08 19.7774 10.08C18.8374 10.08 18.1109 9.77667 17.5975 9.17C17.0909 8.56333 16.8375 7.70333 16.8375 6.59C16.8375 5.81 16.9741 5.14667 17.2474 4.6C17.5274 4.04667 17.9141 3.63 18.4074 3.35C18.9074 3.06333 19.4874 2.92 20.1474 2.92C20.4874 2.92 20.8075 2.95667 21.1075 3.03C21.4075 3.09667 21.6674 3.19667 21.8874 3.33L21.5075 4.11C21.1742 3.89 20.7274 3.78 20.1674 3.78C19.4408 3.78 18.8708 4.00667 18.4574 4.46C18.0441 4.90667 17.8375 5.56 17.8375 6.42C17.8375 6.52667 17.8409 6.61 17.8475 6.67C18.0475 6.37 18.3208 6.14333 18.6674 5.99C19.0208 5.83 19.4175 5.75 19.8575 5.75ZM19.7374 9.27C20.1974 9.27 20.5709 9.14667 20.8575 8.9C21.1442 8.65333 21.2874 8.32333 21.2874 7.91C21.2874 7.49667 21.1409 7.17 20.8475 6.93C20.5609 6.68333 20.1742 6.56 19.6875 6.56C19.3742 6.56 19.0942 6.62 18.8475 6.74C18.6075 6.86 18.4174 7.02333 18.2774 7.23C18.1441 7.43667 18.0774 7.66667 18.0774 7.92C18.0774 8.16667 18.1409 8.39333 18.2675 8.6C18.4009 8.8 18.5909 8.96333 18.8375 9.09C19.0909 9.21 19.3908 9.27 19.7374 9.27ZM25.8694 10.08C25.3161 10.08 24.8226 9.94 24.3893 9.66C23.9626 9.37333 23.626 8.96 23.3793 8.42C23.1326 7.88 23.0093 7.24 23.0093 6.5C23.0093 5.76 23.1326 5.12 23.3793 4.58C23.626 4.04 23.9626 3.63 24.3893 3.35C24.8226 3.06333 25.3161 2.92 25.8694 2.92C26.4161 2.92 26.9026 3.06333 27.3293 3.35C27.7626 3.63 28.1026 4.04 28.3493 4.58C28.596 5.12 28.7193 5.76 28.7193 6.5C28.7193 7.24 28.596 7.88 28.3493 8.42C28.1026 8.96 27.7626 9.37333 27.3293 9.66C26.9026 9.94 26.4161 10.08 25.8694 10.08ZM25.8694 9.19C26.4294 9.19 26.876 8.96 27.2093 8.5C27.5493 8.04 27.7193 7.37333 27.7193 6.5C27.7193 5.62667 27.5493 4.96 27.2093 4.5C26.876 4.04 26.4294 3.81 25.8694 3.81C25.3027 3.81 24.8493 4.04 24.5093 4.5C24.176 4.96 24.0093 5.62667 24.0093 6.5C24.0093 7.37333 24.176 8.04 24.5093 8.5C24.8493 8.96 25.3027 9.19 25.8694 9.19ZM39.4649 10L39.4548 4.9L36.9249 9.15H36.4649L33.9348 4.93V10H32.9748V3H33.7948L36.7149 7.92L39.5948 3H40.4148L40.4249 10H39.4649ZM42.6037 3H43.5938V8.4L47.7337 3H48.6538V10H47.6737V4.61L43.5238 10H42.6037V3ZM56.8561 3V10H55.8561V6.88H51.8362V10H50.8362V3H51.8362V6.01H55.8561V3H56.8561ZM64.7692 3L61.6592 8.77C61.4126 9.23 61.1226 9.57333 60.7892 9.8C60.4559 10.0267 60.0926 10.14 59.6992 10.14C59.3926 10.14 59.0793 10.07 58.7593 9.93L59.0192 9.13C59.2659 9.21667 59.4859 9.26 59.6792 9.26C60.1192 9.26 60.4826 9.02667 60.7692 8.56L60.9292 8.31L58.1092 3H59.1792L61.4492 7.44L63.7793 3H64.7692ZM70.6852 3.87H68.2852V10H67.3052V3.87H64.9152V3H70.6852V3.87Z" fill="#787878"/>
<path d="M3.16005 270.972C3.84672 271.039 4.37005 271.252 4.73005 271.612C5.09005 271.965 5.27005 272.419 5.27005 272.972C5.27005 273.372 5.17005 273.735 4.97005 274.062C4.77005 274.382 4.47005 274.639 4.07005 274.832C3.67672 275.019 3.19338 275.112 2.62005 275.112C2.12005 275.112 1.64005 275.039 1.18005 274.892C0.720049 274.739 0.343382 274.529 0.0500488 274.262L0.510049 273.472C0.750049 273.699 1.05672 273.882 1.43005 274.022C1.80338 274.155 2.20005 274.222 2.62005 274.222C3.14005 274.222 3.54338 274.112 3.83005 273.892C4.12338 273.672 4.27005 273.369 4.27005 272.982C4.27005 272.595 4.12672 272.295 3.84005 272.082C3.55338 271.869 3.12005 271.762 2.54005 271.762H1.98005V271.062L3.74005 268.902H0.370049V268.032H4.99005V268.712L3.16005 270.972ZM9.06271 275.112C8.50937 275.112 8.01604 274.972 7.58271 274.692C7.15604 274.405 6.81937 273.992 6.57271 273.452C6.32604 272.912 6.20271 272.272 6.20271 271.532C6.20271 270.792 6.32604 270.152 6.57271 269.612C6.81937 269.072 7.15604 268.662 7.58271 268.382C8.01604 268.095 8.50937 267.952 9.06271 267.952C9.60937 267.952 10.096 268.095 10.5227 268.382C10.956 268.662 11.296 269.072 11.5427 269.612C11.7893 270.152 11.9127 270.792 11.9127 271.532C11.9127 272.272 11.7893 272.912 11.5427 273.452C11.296 273.992 10.956 274.405 10.5227 274.692C10.096 274.972 9.60937 275.112 9.06271 275.112ZM9.06271 274.222C9.62271 274.222 10.0693 273.992 10.4027 273.532C10.7427 273.072 10.9127 272.405 10.9127 271.532C10.9127 270.659 10.7427 269.992 10.4027 269.532C10.0693 269.072 9.62271 268.842 9.06271 268.842C8.49604 268.842 8.04271 269.072 7.70271 269.532C7.36937 269.992 7.20271 270.659 7.20271 271.532C7.20271 272.405 7.36937 273.072 7.70271 273.532C8.04271 273.992 8.49604 274.222 9.06271 274.222ZM13.0309 271.872H15.7209V272.702H13.0309V271.872ZM19.8575 270.782C20.3175 270.782 20.7275 270.869 21.0875 271.042C21.4542 271.215 21.7408 271.465 21.9474 271.792C22.1541 272.112 22.2575 272.482 22.2575 272.902C22.2575 273.342 22.1475 273.729 21.9275 274.062C21.7142 274.395 21.4174 274.655 21.0374 274.842C20.6641 275.022 20.2441 275.112 19.7774 275.112C18.8374 275.112 18.1109 274.809 17.5975 274.202C17.0909 273.595 16.8375 272.735 16.8375 271.622C16.8375 270.842 16.9741 270.179 17.2474 269.632C17.5274 269.079 17.9141 268.662 18.4074 268.382C18.9074 268.095 19.4874 267.952 20.1474 267.952C20.4874 267.952 20.8075 267.989 21.1075 268.062C21.4075 268.129 21.6674 268.229 21.8874 268.362L21.5075 269.142C21.1742 268.922 20.7274 268.812 20.1674 268.812C19.4408 268.812 18.8708 269.039 18.4574 269.492C18.0441 269.939 17.8375 270.592 17.8375 271.452C17.8375 271.559 17.8409 271.642 17.8475 271.702C18.0475 271.402 18.3208 271.175 18.6674 271.022C19.0208 270.862 19.4175 270.782 19.8575 270.782ZM19.7374 274.302C20.1974 274.302 20.5709 274.179 20.8575 273.932C21.1442 273.685 21.2874 273.355 21.2874 272.942C21.2874 272.529 21.1409 272.202 20.8475 271.962C20.5609 271.715 20.1742 271.592 19.6875 271.592C19.3742 271.592 19.0942 271.652 18.8475 271.772C18.6075 271.892 18.4174 272.055 18.2774 272.262C18.1441 272.469 18.0774 272.699 18.0774 272.952C18.0774 273.199 18.1409 273.425 18.2675 273.632C18.4009 273.832 18.5909 273.995 18.8375 274.122C19.0909 274.242 19.3908 274.302 19.7374 274.302ZM25.8694 275.112C25.3161 275.112 24.8226 274.972 24.3893 274.692C23.9626 274.405 23.626 273.992 23.3793 273.452C23.1326 272.912 23.0093 272.272 23.0093 271.532C23.0093 270.792 23.1326 270.152 23.3793 269.612C23.626 269.072 23.9626 268.662 24.3893 268.382C24.8226 268.095 25.3161 267.952 25.8694 267.952C26.4161 267.952 26.9026 268.095 27.3293 268.382C27.7626 268.662 28.1026 269.072 28.3493 269.612C28.596 270.152 28.7193 270.792 28.7193 271.532C28.7193 272.272 28.596 272.912 28.3493 273.452C28.1026 273.992 27.7626 274.405 27.3293 274.692C26.9026 274.972 26.4161 275.112 25.8694 275.112ZM25.8694 274.222C26.4294 274.222 26.876 273.992 27.2093 273.532C27.5493 273.072 27.7193 272.405 27.7193 271.532C27.7193 270.659 27.5493 269.992 27.2093 269.532C26.876 269.072 26.4294 268.842 25.8694 268.842C25.3027 268.842 24.8493 269.072 24.5093 269.532C24.176 269.992 24.0093 270.659 24.0093 271.532C24.0093 272.405 24.176 273.072 24.5093 273.532C24.8493 273.992 25.3027 274.222 25.8694 274.222ZM39.4649 275.032L39.4548 269.932L36.9249 274.182H36.4649L33.9348 269.962V275.032H32.9748V268.032H33.7948L36.7149 272.952L39.5948 268.032H40.4148L40.4249 275.032H39.4649ZM42.6037 268.032H43.5938V273.432L47.7337 268.032H48.6538V275.032H47.6737V269.642L43.5238 275.032H42.6037V268.032ZM56.8561 268.032V275.032H55.8561V271.912H51.8362V275.032H50.8362V268.032H51.8362V271.042H55.8561V268.032H56.8561ZM64.7692 268.032L61.6592 273.802C61.4126 274.262 61.1226 274.605 60.7892 274.832C60.4559 275.059 60.0926 275.172 59.6992 275.172C59.3926 275.172 59.0793 275.102 58.7593 274.962L59.0192 274.162C59.2659 274.249 59.4859 274.292 59.6792 274.292C60.1192 274.292 60.4826 274.059 60.7692 273.592L60.9292 273.342L58.1092 268.032H59.1792L61.4492 272.472L63.7793 268.032H64.7692ZM70.6852 268.902H68.2852V275.032H67.3052V268.902H64.9152V268.032H70.6852V268.902Z" fill="#787878"/>
<path d="M3.16005 164.029C3.84672 164.096 4.37005 164.309 4.73005 164.669C5.09005 165.023 5.27005 165.476 5.27005 166.029C5.27005 166.429 5.17005 166.793 4.97005 167.119C4.77005 167.439 4.47005 167.696 4.07005 167.889C3.67672 168.076 3.19338 168.169 2.62005 168.169C2.12005 168.169 1.64005 168.096 1.18005 167.949C0.720049 167.796 0.343382 167.586 0.0500488 167.319L0.510049 166.529C0.750049 166.756 1.05672 166.939 1.43005 167.079C1.80338 167.213 2.20005 167.279 2.62005 167.279C3.14005 167.279 3.54338 167.169 3.83005 166.949C4.12338 166.729 4.27005 166.426 4.27005 166.039C4.27005 165.653 4.12672 165.353 3.84005 165.139C3.55338 164.926 3.12005 164.819 2.54005 164.819H1.98005V164.119L3.74005 161.959H0.370049V161.089H4.99005V161.769L3.16005 164.029ZM9.06271 168.169C8.50937 168.169 8.01604 168.029 7.58271 167.749C7.15604 167.463 6.81937 167.049 6.57271 166.509C6.32604 165.969 6.20271 165.329 6.20271 164.589C6.20271 163.849 6.32604 163.209 6.57271 162.669C6.81937 162.129 7.15604 161.719 7.58271 161.439C8.01604 161.153 8.50937 161.009 9.06271 161.009C9.60937 161.009 10.096 161.153 10.5227 161.439C10.956 161.719 11.296 162.129 11.5427 162.669C11.7893 163.209 11.9127 163.849 11.9127 164.589C11.9127 165.329 11.7893 165.969 11.5427 166.509C11.296 167.049 10.956 167.463 10.5227 167.749C10.096 168.029 9.60937 168.169 9.06271 168.169ZM9.06271 167.279C9.62271 167.279 10.0693 167.049 10.4027 166.589C10.7427 166.129 10.9127 165.463 10.9127 164.589C10.9127 163.716 10.7427 163.049 10.4027 162.589C10.0693 162.129 9.62271 161.899 9.06271 161.899C8.49604 161.899 8.04271 162.129 7.70271 162.589C7.36937 163.049 7.20271 163.716 7.20271 164.589C7.20271 165.463 7.36937 166.129 7.70271 166.589C8.04271 167.049 8.49604 167.279 9.06271 167.279ZM13.0309 164.929H15.7209V165.759H13.0309V164.929ZM19.8575 163.839C20.3175 163.839 20.7275 163.926 21.0875 164.099C21.4542 164.273 21.7408 164.523 21.9474 164.849C22.1541 165.169 22.2575 165.539 22.2575 165.959C22.2575 166.399 22.1475 166.786 21.9275 167.119C21.7142 167.453 21.4174 167.713 21.0374 167.899C20.6641 168.079 20.2441 168.169 19.7774 168.169C18.8374 168.169 18.1109 167.866 17.5975 167.259C17.0909 166.653 16.8375 165.793 16.8375 164.679C16.8375 163.899 16.9741 163.236 17.2474 162.689C17.5274 162.136 17.9141 161.719 18.4074 161.439C18.9074 161.153 19.4874 161.009 20.1474 161.009C20.4874 161.009 20.8075 161.046 21.1075 161.119C21.4075 161.186 21.6674 161.286 21.8874 161.419L21.5075 162.199C21.1742 161.979 20.7274 161.869 20.1674 161.869C19.4408 161.869 18.8708 162.096 18.4574 162.549C18.0441 162.996 17.8375 163.649 17.8375 164.509C17.8375 164.616 17.8409 164.699 17.8475 164.759C18.0475 164.459 18.3208 164.233 18.6674 164.079C19.0208 163.919 19.4175 163.839 19.8575 163.839ZM19.7374 167.359C20.1974 167.359 20.5709 167.236 20.8575 166.989C21.1442 166.743 21.2874 166.413 21.2874 165.999C21.2874 165.586 21.1409 165.259 20.8475 165.019C20.5609 164.773 20.1742 164.649 19.6875 164.649C19.3742 164.649 19.0942 164.709 18.8475 164.829C18.6075 164.949 18.4174 165.113 18.2774 165.319C18.1441 165.526 18.0774 165.756 18.0774 166.009C18.0774 166.256 18.1409 166.483 18.2675 166.689C18.4009 166.889 18.5909 167.053 18.8375 167.179C19.0909 167.299 19.3908 167.359 19.7374 167.359ZM25.8694 168.169C25.3161 168.169 24.8226 168.029 24.3893 167.749C23.9626 167.463 23.626 167.049 23.3793 166.509C23.1326 165.969 23.0093 165.329 23.0093 164.589C23.0093 163.849 23.1326 163.209 23.3793 162.669C23.626 162.129 23.9626 161.719 24.3893 161.439C24.8226 161.153 25.3161 161.009 25.8694 161.009C26.4161 161.009 26.9026 161.153 27.3293 161.439C27.7626 161.719 28.1026 162.129 28.3493 162.669C28.596 163.209 28.7193 163.849 28.7193 164.589C28.7193 165.329 28.596 165.969 28.3493 166.509C28.1026 167.049 27.7626 167.463 27.3293 167.749C26.9026 168.029 26.4161 168.169 25.8694 168.169ZM25.8694 167.279C26.4294 167.279 26.876 167.049 27.2093 166.589C27.5493 166.129 27.7193 165.463 27.7193 164.589C27.7193 163.716 27.5493 163.049 27.2093 162.589C26.876 162.129 26.4294 161.899 25.8694 161.899C25.3027 161.899 24.8493 162.129 24.5093 162.589C24.176 163.049 24.0093 163.716 24.0093 164.589C24.0093 165.463 24.176 166.129 24.5093 166.589C24.8493 167.049 25.3027 167.279 25.8694 167.279ZM39.4649 168.089L39.4548 162.989L36.9249 167.239H36.4649L33.9348 163.019V168.089H32.9748V161.089H33.7948L36.7149 166.009L39.5948 161.089H40.4148L40.4249 168.089H39.4649ZM42.6037 161.089H43.5938V166.489L47.7337 161.089H48.6538V168.089H47.6737V162.699L43.5238 168.089H42.6037V161.089ZM56.8561 161.089V168.089H55.8561V164.969H51.8362V168.089H50.8362V161.089H51.8362V164.099H55.8561V161.089H56.8561ZM64.7692 161.089L61.6592 166.859C61.4126 167.319 61.1226 167.663 60.7892 167.889C60.4559 168.116 60.0926 168.229 59.6992 168.229C59.3926 168.229 59.0793 168.159 58.7593 168.019L59.0192 167.219C59.2659 167.306 59.4859 167.349 59.6792 167.349C60.1192 167.349 60.4826 167.116 60.7692 166.649L60.9292 166.399L58.1092 161.089H59.1792L61.4492 165.529L63.7793 161.089H64.7692ZM70.6852 161.959H68.2852V168.089H67.3052V161.959H64.9152V161.089H70.6852V161.959Z" fill="#787878"/>
<path d="M3.16005 217.501C3.84672 217.567 4.37005 217.781 4.73005 218.141C5.09005 218.494 5.27005 218.947 5.27005 219.501C5.27005 219.901 5.17005 220.264 4.97005 220.591C4.77005 220.911 4.47005 221.167 4.07005 221.361C3.67672 221.547 3.19338 221.641 2.62005 221.641C2.12005 221.641 1.64005 221.567 1.18005 221.421C0.720049 221.267 0.343382 221.057 0.0500488 220.791L0.510049 220.001C0.750049 220.227 1.05672 220.411 1.43005 220.551C1.80338 220.684 2.20005 220.751 2.62005 220.751C3.14005 220.751 3.54338 220.641 3.83005 220.421C4.12338 220.201 4.27005 219.897 4.27005 219.511C4.27005 219.124 4.12672 218.824 3.84005 218.611C3.55338 218.397 3.12005 218.291 2.54005 218.291H1.98005V217.591L3.74005 215.431H0.370049V214.561H4.99005V215.241L3.16005 217.501ZM9.06271 221.641C8.50937 221.641 8.01604 221.501 7.58271 221.221C7.15604 220.934 6.81937 220.521 6.57271 219.981C6.32604 219.441 6.20271 218.801 6.20271 218.061C6.20271 217.321 6.32604 216.681 6.57271 216.141C6.81937 215.601 7.15604 215.191 7.58271 214.911C8.01604 214.624 8.50937 214.481 9.06271 214.481C9.60937 214.481 10.096 214.624 10.5227 214.911C10.956 215.191 11.296 215.601 11.5427 216.141C11.7893 216.681 11.9127 217.321 11.9127 218.061C11.9127 218.801 11.7893 219.441 11.5427 219.981C11.296 220.521 10.956 220.934 10.5227 221.221C10.096 221.501 9.60937 221.641 9.06271 221.641ZM9.06271 220.751C9.62271 220.751 10.0693 220.521 10.4027 220.061C10.7427 219.601 10.9127 218.934 10.9127 218.061C10.9127 217.187 10.7427 216.521 10.4027 216.061C10.0693 215.601 9.62271 215.371 9.06271 215.371C8.49604 215.371 8.04271 215.601 7.70271 216.061C7.36937 216.521 7.20271 217.187 7.20271 218.061C7.20271 218.934 7.36937 219.601 7.70271 220.061C8.04271 220.521 8.49604 220.751 9.06271 220.751ZM13.0309 218.401H15.7209V219.231H13.0309V218.401ZM19.8575 217.311C20.3175 217.311 20.7275 217.397 21.0875 217.571C21.4542 217.744 21.7408 217.994 21.9474 218.321C22.1541 218.641 22.2575 219.011 22.2575 219.431C22.2575 219.871 22.1475 220.257 21.9275 220.591C21.7142 220.924 21.4174 221.184 21.0374 221.371C20.6641 221.551 20.2441 221.641 19.7774 221.641C18.8374 221.641 18.1109 221.337 17.5975 220.731C17.0909 220.124 16.8375 219.264 16.8375 218.151C16.8375 217.371 16.9741 216.707 17.2474 216.161C17.5274 215.607 17.9141 215.191 18.4074 214.911C18.9074 214.624 19.4874 214.481 20.1474 214.481C20.4874 214.481 20.8075 214.517 21.1075 214.591C21.4075 214.657 21.6674 214.757 21.8874 214.891L21.5075 215.671C21.1742 215.451 20.7274 215.341 20.1674 215.341C19.4408 215.341 18.8708 215.567 18.4574 216.021C18.0441 216.467 17.8375 217.121 17.8375 217.981C17.8375 218.087 17.8409 218.171 17.8475 218.231C18.0475 217.931 18.3208 217.704 18.6674 217.551C19.0208 217.391 19.4175 217.311 19.8575 217.311ZM19.7374 220.831C20.1974 220.831 20.5709 220.707 20.8575 220.461C21.1442 220.214 21.2874 219.884 21.2874 219.471C21.2874 219.057 21.1409 218.731 20.8475 218.491C20.5609 218.244 20.1742 218.121 19.6875 218.121C19.3742 218.121 19.0942 218.181 18.8475 218.301C18.6075 218.421 18.4174 218.584 18.2774 218.791C18.1441 218.997 18.0774 219.227 18.0774 219.481C18.0774 219.727 18.1409 219.954 18.2675 220.161C18.4009 220.361 18.5909 220.524 18.8375 220.651C19.0909 220.771 19.3908 220.831 19.7374 220.831ZM25.8694 221.641C25.3161 221.641 24.8226 221.501 24.3893 221.221C23.9626 220.934 23.626 220.521 23.3793 219.981C23.1326 219.441 23.0093 218.801 23.0093 218.061C23.0093 217.321 23.1326 216.681 23.3793 216.141C23.626 215.601 23.9626 215.191 24.3893 214.911C24.8226 214.624 25.3161 214.481 25.8694 214.481C26.4161 214.481 26.9026 214.624 27.3293 214.911C27.7626 215.191 28.1026 215.601 28.3493 216.141C28.596 216.681 28.7193 217.321 28.7193 218.061C28.7193 218.801 28.596 219.441 28.3493 219.981C28.1026 220.521 27.7626 220.934 27.3293 221.221C26.9026 221.501 26.4161 221.641 25.8694 221.641ZM25.8694 220.751C26.4294 220.751 26.876 220.521 27.2093 220.061C27.5493 219.601 27.7193 218.934 27.7193 218.061C27.7193 217.187 27.5493 216.521 27.2093 216.061C26.876 215.601 26.4294 215.371 25.8694 215.371C25.3027 215.371 24.8493 215.601 24.5093 216.061C24.176 216.521 24.0093 217.187 24.0093 218.061C24.0093 218.934 24.176 219.601 24.5093 220.061C24.8493 220.521 25.3027 220.751 25.8694 220.751ZM39.4649 221.561L39.4548 216.461L36.9249 220.711H36.4649L33.9348 216.491V221.561H32.9748V214.561H33.7948L36.7149 219.481L39.5948 214.561H40.4148L40.4249 221.561H39.4649ZM42.6037 214.561H43.5938V219.961L47.7337 214.561H48.6538V221.561H47.6737V216.171L43.5238 221.561H42.6037V214.561ZM56.8561 214.561V221.561H55.8561V218.441H51.8362V221.561H50.8362V214.561H51.8362V217.571H55.8561V214.561H56.8561ZM64.7692 214.561L61.6592 220.331C61.4126 220.791 61.1226 221.134 60.7892 221.361C60.4559 221.587 60.0926 221.701 59.6992 221.701C59.3926 221.701 59.0793 221.631 58.7593 221.491L59.0192 220.691C59.2659 220.777 59.4859 220.821 59.6792 220.821C60.1192 220.821 60.4826 220.587 60.7692 220.121L60.9292 219.871L58.1092 214.561H59.1792L61.4492 219.001L63.7793 214.561H64.7692ZM70.6852 215.431H68.2852V221.561H67.3052V215.431H64.9152V214.561H70.6852V215.431Z" fill="#787878"/>
<path d="M2.65008 107.618V114.618H1.66008V108.488H0.0800781V107.618H2.65008ZM6.18125 110.408C7.18125 110.408 7.91459 110.598 8.38125 110.978C8.85459 111.351 9.09125 111.864 9.09125 112.518C9.09125 112.931 8.99125 113.304 8.79125 113.638C8.59792 113.964 8.30125 114.224 7.90125 114.418C7.50792 114.604 7.02125 114.698 6.44125 114.698C5.94792 114.698 5.47125 114.624 5.01125 114.478C4.55125 114.324 4.17125 114.114 3.87125 113.848L4.33125 113.058C4.57125 113.284 4.87792 113.468 5.25125 113.608C5.62459 113.741 6.01792 113.808 6.43125 113.808C6.95792 113.808 7.36459 113.698 7.65125 113.478C7.94459 113.251 8.09125 112.944 8.09125 112.558C8.09125 112.138 7.93125 111.821 7.61125 111.608C7.29125 111.388 6.74459 111.278 5.97125 111.278H4.38125L4.75125 107.618H8.70125V108.488H5.59125L5.40125 110.408H6.18125ZM10.0135 111.458H12.7035V112.288H10.0135V111.458ZM16.2363 110.558C16.9229 110.624 17.4463 110.838 17.8063 111.198C18.1663 111.551 18.3463 112.004 18.3463 112.558C18.3463 112.958 18.2463 113.321 18.0463 113.648C17.8463 113.968 17.5463 114.224 17.1463 114.418C16.7529 114.604 16.2696 114.698 15.6963 114.698C15.1963 114.698 14.7163 114.624 14.2563 114.478C13.7963 114.324 13.4196 114.114 13.1263 113.848L13.5863 113.058C13.8263 113.284 14.1329 113.468 14.5063 113.608C14.8796 113.741 15.2763 113.808 15.6963 113.808C16.2163 113.808 16.6196 113.698 16.9063 113.478C17.1996 113.258 17.3463 112.954 17.3463 112.568C17.3463 112.181 17.2029 111.881 16.9163 111.668C16.6296 111.454 16.1963 111.348 15.6163 111.348H15.0563V110.648L16.8163 108.488H13.4463V107.618H18.0663V108.298L16.2363 110.558ZM22.1389 114.698C21.5856 114.698 21.0923 114.558 20.6589 114.278C20.2323 113.991 19.8956 113.578 19.6489 113.038C19.4023 112.498 19.2789 111.858 19.2789 111.118C19.2789 110.378 19.4023 109.738 19.6489 109.198C19.8956 108.658 20.2323 108.248 20.6589 107.968C21.0923 107.681 21.5856 107.538 22.1389 107.538C22.6856 107.538 23.1723 107.681 23.5989 107.968C24.0323 108.248 24.3723 108.658 24.6189 109.198C24.8656 109.738 24.9889 110.378 24.9889 111.118C24.9889 111.858 24.8656 112.498 24.6189 113.038C24.3723 113.578 24.0323 113.991 23.5989 114.278C23.1723 114.558 22.6856 114.698 22.1389 114.698ZM22.1389 113.808C22.6989 113.808 23.1456 113.578 23.4789 113.118C23.8189 112.658 23.9889 111.991 23.9889 111.118C23.9889 110.244 23.8189 109.578 23.4789 109.118C23.1456 108.658 22.6989 108.428 22.1389 108.428C21.5723 108.428 21.1189 108.658 20.7789 109.118C20.4456 109.578 20.2789 110.244 20.2789 111.118C20.2789 111.991 20.4456 112.658 20.7789 113.118C21.1189 113.578 21.5723 113.808 22.1389 113.808ZM35.7344 114.618L35.7244 109.518L33.1944 113.768H32.7344L30.2044 109.548V114.618H29.2444V107.618H30.0644L32.9844 112.538L35.8644 107.618H36.6844L36.6944 114.618H35.7344ZM38.8733 107.618H39.8633V113.018L44.0033 107.618H44.9233V114.618H43.9433V109.228L39.7933 114.618H38.8733V107.618ZM53.1257 107.618V114.618H52.1257V111.498H48.1057V114.618H47.1057V107.618H48.1057V110.628H52.1257V107.618H53.1257ZM61.0389 107.618L57.9289 113.388C57.6822 113.848 57.3922 114.191 57.0589 114.418C56.7255 114.644 56.3622 114.758 55.9689 114.758C55.6622 114.758 55.3489 114.688 55.0289 114.548L55.2889 113.748C55.5355 113.834 55.7555 113.878 55.9489 113.878C56.3889 113.878 56.7522 113.644 57.0389 113.178L57.1989 112.928L54.3789 107.618H55.4489L57.7189 112.058L60.0489 107.618H61.0389ZM66.9548 108.488H64.5548V114.618H63.5748V108.488H61.1848V107.618H66.9548V108.488Z" fill="#787878"/>
<path d="M2.65008 321.503V328.503H1.66008V322.373H0.0800781V321.503H2.65008ZM6.18125 324.293C7.18125 324.293 7.91459 324.483 8.38125 324.863C8.85459 325.237 9.09125 325.75 9.09125 326.403C9.09125 326.817 8.99125 327.19 8.79125 327.523C8.59792 327.85 8.30125 328.11 7.90125 328.303C7.50792 328.49 7.02125 328.583 6.44125 328.583C5.94792 328.583 5.47125 328.51 5.01125 328.363C4.55125 328.21 4.17125 328 3.87125 327.733L4.33125 326.943C4.57125 327.17 4.87792 327.353 5.25125 327.493C5.62459 327.627 6.01792 327.693 6.43125 327.693C6.95792 327.693 7.36459 327.583 7.65125 327.363C7.94459 327.137 8.09125 326.83 8.09125 326.443C8.09125 326.023 7.93125 325.707 7.61125 325.493C7.29125 325.273 6.74459 325.163 5.97125 325.163H4.38125L4.75125 321.503H8.70125V322.373H5.59125L5.40125 324.293H6.18125ZM10.0135 325.343H12.7035V326.173H10.0135V325.343ZM16.2363 324.443C16.9229 324.51 17.4463 324.723 17.8063 325.083C18.1663 325.437 18.3463 325.89 18.3463 326.443C18.3463 326.843 18.2463 327.207 18.0463 327.533C17.8463 327.853 17.5463 328.11 17.1463 328.303C16.7529 328.49 16.2696 328.583 15.6963 328.583C15.1963 328.583 14.7163 328.51 14.2563 328.363C13.7963 328.21 13.4196 328 13.1263 327.733L13.5863 326.943C13.8263 327.17 14.1329 327.353 14.5063 327.493C14.8796 327.627 15.2763 327.693 15.6963 327.693C16.2163 327.693 16.6196 327.583 16.9063 327.363C17.1996 327.143 17.3463 326.84 17.3463 326.453C17.3463 326.067 17.2029 325.767 16.9163 325.553C16.6296 325.34 16.1963 325.233 15.6163 325.233H15.0563V324.533L16.8163 322.373H13.4463V321.503H18.0663V322.183L16.2363 324.443ZM22.1389 328.583C21.5856 328.583 21.0923 328.443 20.6589 328.163C20.2323 327.877 19.8956 327.463 19.6489 326.923C19.4023 326.383 19.2789 325.743 19.2789 325.003C19.2789 324.263 19.4023 323.623 19.6489 323.083C19.8956 322.543 20.2323 322.133 20.6589 321.853C21.0923 321.567 21.5856 321.423 22.1389 321.423C22.6856 321.423 23.1723 321.567 23.5989 321.853C24.0323 322.133 24.3723 322.543 24.6189 323.083C24.8656 323.623 24.9889 324.263 24.9889 325.003C24.9889 325.743 24.8656 326.383 24.6189 326.923C24.3723 327.463 24.0323 327.877 23.5989 328.163C23.1723 328.443 22.6856 328.583 22.1389 328.583ZM22.1389 327.693C22.6989 327.693 23.1456 327.463 23.4789 327.003C23.8189 326.543 23.9889 325.877 23.9889 325.003C23.9889 324.13 23.8189 323.463 23.4789 323.003C23.1456 322.543 22.6989 322.313 22.1389 322.313C21.5723 322.313 21.1189 322.543 20.7789 323.003C20.4456 323.463 20.2789 324.13 20.2789 325.003C20.2789 325.877 20.4456 326.543 20.7789 327.003C21.1189 327.463 21.5723 327.693 22.1389 327.693ZM35.7344 328.503L35.7244 323.403L33.1944 327.653H32.7344L30.2044 323.433V328.503H29.2444V321.503H30.0644L32.9844 326.423L35.8644 321.503H36.6844L36.6944 328.503H35.7344ZM38.8733 321.503H39.8633V326.903L44.0033 321.503H44.9233V328.503H43.9433V323.113L39.7933 328.503H38.8733V321.503ZM53.1257 321.503V328.503H52.1257V325.383H48.1057V328.503H47.1057V321.503H48.1057V324.513H52.1257V321.503H53.1257ZM61.0389 321.503L57.9289 327.273C57.6822 327.733 57.3922 328.077 57.0589 328.303C56.7255 328.53 56.3622 328.643 55.9689 328.643C55.6622 328.643 55.3489 328.573 55.0289 328.433L55.2889 327.633C55.5355 327.72 55.7555 327.763 55.9489 327.763C56.3889 327.763 56.7522 327.53 57.0389 327.063L57.1989 326.813L54.3789 321.503H55.4489L57.7189 325.943L60.0489 321.503H61.0389ZM66.9548 322.373H64.5548V328.503H63.5748V322.373H61.1848V321.503H66.9548V322.373Z" fill="#787878"/>
<path d="M11.37 37.2484L11.355 29.5984L7.56001 35.9734H6.87001L3.07501 29.6434V37.2484H1.63501V26.7484H2.86501L7.24501 34.1284L11.565 26.7484H12.795L12.81 37.2484H11.37ZM24.6734 26.7484L20.0084 35.4034C19.6384 36.0934 19.2034 36.6084 18.7034 36.9484C18.2034 37.2884 17.6584 37.4584 17.0684 37.4584C16.6084 37.4584 16.1384 37.3534 15.6584 37.1434L16.0484 35.9434C16.4184 36.0734 16.7484 36.1384 17.0384 36.1384C17.6984 36.1384 18.2434 35.7884 18.6734 35.0884L18.9134 34.7134L14.6834 26.7484H16.2884L19.6934 33.4084L23.1884 26.7484H24.6734ZM34.9179 32.6284H32.9229V37.2484H31.4529V32.6284H29.4429L26.5029 37.2484H24.7479L28.2129 31.7884L25.0029 26.7484H26.6079L29.4129 31.3084H31.4529V26.7484H32.9229V31.3084H34.9329L37.7529 26.7484H39.3579L36.1479 31.8184L39.6129 37.2484H37.8579L34.9179 32.6284ZM45.8515 37.3684C44.8015 37.3684 43.8515 37.1384 43.0015 36.6784C42.1615 36.2084 41.5015 35.5684 41.0215 34.7584C40.5415 33.9384 40.3015 33.0184 40.3015 31.9984C40.3015 30.9784 40.5415 30.0634 41.0215 29.2534C41.5015 28.4334 42.1665 27.7934 43.0165 27.3334C43.8665 26.8634 44.8165 26.6284 45.8665 26.6284C46.6865 26.6284 47.4365 26.7684 48.1165 27.0484C48.7965 27.3184 49.3765 27.7234 49.8565 28.2634L48.8815 29.2084C48.0915 28.3784 47.1065 27.9634 45.9265 27.9634C45.1465 27.9634 44.4415 28.1384 43.8115 28.4884C43.1815 28.8384 42.6865 29.3234 42.3265 29.9434C41.9765 30.5534 41.8015 31.2384 41.8015 31.9984C41.8015 32.7584 41.9765 33.4484 42.3265 34.0684C42.6865 34.6784 43.1815 35.1584 43.8115 35.5084C44.4415 35.8584 45.1465 36.0334 45.9265 36.0334C47.0965 36.0334 48.0815 35.6134 48.8815 34.7734L49.8565 35.7184C49.3765 36.2584 48.7915 36.6684 48.1015 36.9484C47.4215 37.2284 46.6715 37.3684 45.8515 37.3684ZM55.5831 32.6284H53.3931V37.2484H51.9231V26.7484H53.3931V31.3084H55.6131L58.9131 26.7484H60.5181L56.7681 31.8334L60.6981 37.2484H58.9881L55.5831 32.6284ZM68.9141 34.6234H63.3341L62.1791 37.2484H60.6341L65.3891 26.7484H66.8741L71.6441 37.2484H70.0691L68.9141 34.6234ZM68.3891 33.4234L66.1241 28.2784L63.8591 33.4234H68.3891ZM80.6532 26.7484V37.2484H79.1832V34.1884H76.2882C76.1082 34.1884 75.9732 34.1834 75.8832 34.1734L73.7832 37.2484H72.1932L74.5182 33.9184C73.7682 33.6684 73.1932 33.2534 72.7932 32.6734C72.3932 32.0834 72.1932 31.3684 72.1932 30.5284C72.1932 29.3384 72.5732 28.4134 73.3332 27.7534C74.1032 27.0834 75.1382 26.7484 76.4382 26.7484H80.6532ZM73.7082 30.5134C73.7082 31.2934 73.9332 31.8934 74.3832 32.3134C74.8432 32.7234 75.5182 32.9284 76.4082 32.9284H79.1832V28.0534H76.4982C75.5982 28.0534 74.9082 28.2634 74.4282 28.6834C73.9482 29.1034 73.7082 29.7134 73.7082 30.5134ZM92.6532 37.3684C91.6032 37.3684 90.6532 37.1384 89.8032 36.6784C88.9632 36.2084 88.3032 35.5684 87.8232 34.7584C87.3432 33.9384 87.1032 33.0184 87.1032 31.9984C87.1032 30.9784 87.3432 30.0634 87.8232 29.2534C88.3032 28.4334 88.9682 27.7934 89.8182 27.3334C90.6682 26.8634 91.6182 26.6284 92.6682 26.6284C93.4882 26.6284 94.2382 26.7684 94.9182 27.0484C95.5982 27.3184 96.1782 27.7234 96.6582 28.2634L95.6832 29.2084C94.8932 28.3784 93.9082 27.9634 92.7282 27.9634C91.9482 27.9634 91.2432 28.1384 90.6132 28.4884C89.9832 28.8384 89.4882 29.3234 89.1282 29.9434C88.7782 30.5534 88.6032 31.2384 88.6032 31.9984C88.6032 32.7584 88.7782 33.4484 89.1282 34.0684C89.4882 34.6784 89.9832 35.1584 90.6132 35.5084C91.2432 35.8584 91.9482 36.0334 92.7282 36.0334C93.8982 36.0334 94.8832 35.6134 95.6832 34.7734L96.6582 35.7184C96.1782 36.2584 95.5932 36.6684 94.9032 36.9484C94.2232 37.2284 93.4732 37.3684 92.6532 37.3684ZM105.823 28.0534H102.223V37.2484H100.753V28.0534H97.1677V26.7484H105.823V28.0534ZM111.741 26.7484C113.101 26.7484 114.171 27.0734 114.951 27.7234C115.731 28.3734 116.121 29.2684 116.121 30.4084C116.121 31.5484 115.731 32.4434 114.951 33.0934C114.171 33.7434 113.101 34.0684 111.741 34.0684H109.146V37.2484H107.646V26.7484H111.741ZM111.696 32.7634C112.646 32.7634 113.371 32.5634 113.871 32.1634C114.371 31.7534 114.621 31.1684 114.621 30.4084C114.621 29.6484 114.371 29.0684 113.871 28.6684C113.371 28.2584 112.646 28.0534 111.696 28.0534H109.146V32.7634H111.696ZM118.207 26.7484H119.692V34.8484L125.902 26.7484H127.282V37.2484H125.812V29.1634L119.587 37.2484H118.207V26.7484ZM139.376 32.6284H137.381V37.2484H135.911V32.6284H133.901L130.961 37.2484H129.206L132.671 31.7884L129.461 26.7484H131.066L133.871 31.3084H135.911V26.7484H137.381V31.3084H139.391L142.211 26.7484H143.816L140.606 31.8184L144.071 37.2484H142.316L139.376 32.6284ZM149.304 32.6284H147.114V37.2484H145.644V26.7484H147.114V31.3084H149.334L152.634 26.7484H154.239L150.489 31.8334L154.419 37.2484H152.709L149.304 32.6284ZM162.635 34.6234H157.055L155.9 37.2484H154.355L159.11 26.7484H160.595L165.365 37.2484H163.79L162.635 34.6234ZM162.11 33.4234L159.845 28.2784L157.58 33.4234H162.11Z" fill="black"/>
<path d="M6.33003 141.986C5.28003 141.986 4.33003 141.756 3.48003 141.296C2.64003 140.826 1.98003 140.186 1.50003 139.376C1.02003 138.556 0.780029 137.636 0.780029 136.616C0.780029 135.596 1.02003 134.681 1.50003 133.871C1.98003 133.051 2.64503 132.411 3.49503 131.951C4.34503 131.481 5.29503 131.246 6.34503 131.246C7.16503 131.246 7.91503 131.386 8.59503 131.666C9.27503 131.936 9.85503 132.341 10.335 132.881L9.36003 133.826C8.57003 132.996 7.58503 132.581 6.40503 132.581C5.62503 132.581 4.92003 132.756 4.29003 133.106C3.66003 133.456 3.16503 133.941 2.80503 134.561C2.45503 135.171 2.28003 135.856 2.28003 136.616C2.28003 137.376 2.45503 138.066 2.80503 138.686C3.16503 139.296 3.66003 139.776 4.29003 140.126C4.92003 140.476 5.62503 140.651 6.40503 140.651C7.57503 140.651 8.56003 140.231 9.36003 139.391L10.335 140.336C9.85503 140.876 9.27003 141.286 8.58003 141.566C7.90003 141.846 7.15003 141.986 6.33003 141.986ZM19.4994 132.671H15.8994V141.866H14.4294V132.671H10.8444V131.366H19.4994V132.671ZM25.4175 131.366C26.7775 131.366 27.8475 131.691 28.6275 132.341C29.4075 132.991 29.7975 133.886 29.7975 135.026C29.7975 136.166 29.4075 137.061 28.6275 137.711C27.8475 138.361 26.7775 138.686 25.4175 138.686H22.8225V141.866H21.3225V131.366H25.4175ZM25.3725 137.381C26.3225 137.381 27.0475 137.181 27.5475 136.781C28.0475 136.371 28.2975 135.786 28.2975 135.026C28.2975 134.266 28.0475 133.686 27.5475 133.286C27.0475 132.876 26.3225 132.671 25.3725 132.671H22.8225V137.381H25.3725ZM31.884 131.366H33.369V139.466L39.579 131.366H40.959V141.866H39.489V133.781L33.264 141.866H31.884V131.366ZM53.0527 137.246H51.0577V141.866H49.5877V137.246H47.5777L44.6377 141.866H42.8827L46.3477 136.406L43.1377 131.366H44.7427L47.5477 135.926H49.5877V131.366H51.0577V135.926H53.0677L55.8877 131.366H57.4927L54.2827 136.436L57.7477 141.866H55.9927L53.0527 137.246ZM62.9805 137.246H60.7905V141.866H59.3205V131.366H60.7905V135.926H63.0105L66.3105 131.366H67.9155L64.1655 136.451L68.0955 141.866H66.3855L62.9805 137.246ZM76.3116 139.241H70.7316L69.5766 141.866H68.0316L72.7866 131.366H74.2716L79.0416 141.866H77.4666L76.3116 139.241ZM75.7866 138.041L73.5216 132.896L71.2566 138.041H75.7866ZM84.8821 131.366H92.8021V132.641H86.3671V135.641H89.6371C90.8871 135.641 91.8371 135.901 92.4871 136.421C93.1371 136.941 93.4621 137.691 93.4621 138.671C93.4621 139.701 93.1071 140.491 92.3971 141.041C91.6971 141.591 90.6921 141.866 89.3821 141.866H84.8821V131.366ZM89.3221 140.681C90.1821 140.681 90.8371 140.516 91.2871 140.186C91.7371 139.856 91.9621 139.371 91.9621 138.731C91.9621 137.461 91.0821 136.826 89.3221 136.826H86.3671V140.681H89.3221ZM100.579 141.986C99.5188 141.986 98.5638 141.756 97.7138 141.296C96.8638 140.826 96.1938 140.181 95.7038 139.361C95.2238 138.541 94.9838 137.626 94.9838 136.616C94.9838 135.606 95.2238 134.691 95.7038 133.871C96.1938 133.051 96.8638 132.411 97.7138 131.951C98.5638 131.481 99.5188 131.246 100.579 131.246C101.629 131.246 102.579 131.481 103.429 131.951C104.279 132.411 104.944 133.051 105.424 133.871C105.904 134.681 106.144 135.596 106.144 136.616C106.144 137.636 105.904 138.556 105.424 139.376C104.944 140.186 104.279 140.826 103.429 141.296C102.579 141.756 101.629 141.986 100.579 141.986ZM100.579 140.651C101.349 140.651 102.039 140.476 102.649 140.126C103.269 139.776 103.754 139.296 104.104 138.686C104.464 138.066 104.644 137.376 104.644 136.616C104.644 135.856 104.464 135.171 104.104 134.561C103.754 133.941 103.269 133.456 102.649 133.106C102.039 132.756 101.349 132.581 100.579 132.581C99.8088 132.581 99.1088 132.756 98.4788 133.106C97.8588 133.456 97.3688 133.941 97.0088 134.561C96.6588 135.171 96.4838 135.856 96.4838 136.616C96.4838 137.376 96.6588 138.066 97.0088 138.686C97.3688 139.296 97.8588 139.776 98.4788 140.126C99.1088 140.476 99.8088 140.651 100.579 140.651ZM112.664 131.366C114.024 131.366 115.094 131.691 115.874 132.341C116.654 132.991 117.044 133.886 117.044 135.026C117.044 136.166 116.654 137.061 115.874 137.711C115.094 138.361 114.024 138.686 112.664 138.686H110.069V141.866H108.569V131.366H112.664ZM112.619 137.381C113.569 137.381 114.294 137.181 114.794 136.781C115.294 136.371 115.544 135.786 115.544 135.026C115.544 134.266 115.294 133.686 114.794 133.286C114.294 132.876 113.569 132.671 112.619 132.671H110.069V137.381H112.619ZM124.002 141.986C122.942 141.986 121.987 141.756 121.137 141.296C120.287 140.826 119.617 140.181 119.127 139.361C118.647 138.541 118.407 137.626 118.407 136.616C118.407 135.606 118.647 134.691 119.127 133.871C119.617 133.051 120.287 132.411 121.137 131.951C121.987 131.481 122.942 131.246 124.002 131.246C125.052 131.246 126.002 131.481 126.852 131.951C127.702 132.411 128.367 133.051 128.847 133.871C129.327 134.681 129.567 135.596 129.567 136.616C129.567 137.636 129.327 138.556 128.847 139.376C128.367 140.186 127.702 140.826 126.852 141.296C126.002 141.756 125.052 141.986 124.002 141.986ZM124.002 140.651C124.772 140.651 125.462 140.476 126.072 140.126C126.692 139.776 127.177 139.296 127.527 138.686C127.887 138.066 128.067 137.376 128.067 136.616C128.067 135.856 127.887 135.171 127.527 134.561C127.177 133.941 126.692 133.456 126.072 133.106C125.462 132.756 124.772 132.581 124.002 132.581C123.232 132.581 122.532 132.756 121.902 133.106C121.282 133.456 120.792 133.941 120.432 134.561C120.082 135.171 119.907 135.856 119.907 136.616C119.907 137.376 120.082 138.066 120.432 138.686C120.792 139.296 121.282 139.776 121.902 140.126C122.532 140.476 123.232 140.651 124.002 140.651ZM141.703 140.561V144.161H140.308V141.866H131.668L131.653 144.161H130.258L130.273 140.561H130.783C131.443 140.521 131.908 140.001 132.178 139.001C132.448 137.991 132.613 136.571 132.673 134.741L132.778 131.366H140.158V140.561H141.703ZM133.993 134.876C133.943 136.356 133.823 137.581 133.633 138.551C133.453 139.521 133.158 140.191 132.748 140.561H138.673V132.671H134.068L133.993 134.876ZM148.359 135.026C149.609 135.026 150.564 135.306 151.224 135.866C151.894 136.426 152.229 137.251 152.229 138.341C152.229 139.491 151.869 140.366 151.149 140.966C150.439 141.566 149.419 141.866 148.089 141.866H143.754V131.366H145.239V135.026H148.359ZM148.029 140.681C148.899 140.681 149.564 140.486 150.024 140.096C150.494 139.696 150.729 139.121 150.729 138.371C150.729 136.931 149.829 136.211 148.029 136.211H145.239V140.681H148.029ZM153.894 131.366H155.379V141.866H153.894V131.366Z" fill="black"/>
<path d="M11.6401 194.033V197.633H10.2451V195.338H1.60507L1.59007 197.633H0.195068L0.210068 194.033H0.720068C1.38007 193.993 1.84507 193.473 2.11507 192.473C2.38507 191.463 2.55007 190.043 2.61007 188.213L2.71507 184.838H10.0951V194.033H11.6401ZM3.93007 188.348C3.88007 189.828 3.76007 191.053 3.57007 192.023C3.39007 192.993 3.09507 193.663 2.68507 194.033H8.61007V186.143H4.00507L3.93007 188.348ZM21.3108 194.033V195.338H13.6908V184.838H21.1008V186.143H15.1908V189.368H20.4558V190.643H15.1908V194.033H21.3108ZM30.8814 186.143H27.2814V195.338H25.8114V186.143H22.2264V184.838H30.8814V186.143ZM37.253 195.458C36.203 195.458 35.253 195.228 34.403 194.768C33.563 194.298 32.903 193.658 32.423 192.848C31.943 192.028 31.703 191.108 31.703 190.088C31.703 189.068 31.943 188.153 32.423 187.343C32.903 186.523 33.568 185.883 34.418 185.423C35.268 184.953 36.218 184.718 37.268 184.718C38.088 184.718 38.838 184.858 39.518 185.138C40.198 185.408 40.778 185.813 41.258 186.353L40.283 187.298C39.493 186.468 38.508 186.053 37.328 186.053C36.548 186.053 35.843 186.228 35.213 186.578C34.583 186.928 34.088 187.413 33.728 188.033C33.378 188.643 33.203 189.328 33.203 190.088C33.203 190.848 33.378 191.538 33.728 192.158C34.088 192.768 34.583 193.248 35.213 193.598C35.843 193.948 36.548 194.123 37.328 194.123C38.498 194.123 39.483 193.703 40.283 192.863L41.258 193.808C40.778 194.348 40.193 194.758 39.503 195.038C38.823 195.318 38.073 195.458 37.253 195.458ZM46.9846 190.718H44.7946V195.338H43.3246V184.838H44.7946V189.398H47.0146L50.3146 184.838H51.9196L48.1696 189.923L52.0996 195.338H50.3896L46.9846 190.718ZM60.3156 192.713H54.7356L53.5806 195.338H52.0356L56.7906 184.838H58.2756L63.0456 195.338H61.4706L60.3156 192.713ZM59.7906 191.513L57.5256 186.368L55.2606 191.513H59.7906ZM72.0547 184.838V195.338H70.5847V192.278H67.6897C67.5097 192.278 67.3747 192.273 67.2847 192.263L65.1847 195.338H63.5947L65.9197 192.008C65.1697 191.758 64.5947 191.343 64.1947 190.763C63.7947 190.173 63.5947 189.458 63.5947 188.618C63.5947 187.428 63.9747 186.503 64.7347 185.843C65.5047 185.173 66.5397 184.838 67.8397 184.838H72.0547ZM65.1097 188.603C65.1097 189.383 65.3347 189.983 65.7847 190.403C66.2447 190.813 66.9197 191.018 67.8097 191.018H70.5847V186.143H67.8997C66.9997 186.143 66.3097 186.353 65.8297 186.773C65.3497 187.193 65.1097 187.803 65.1097 188.603ZM84.0547 195.458C83.0047 195.458 82.0547 195.228 81.2047 194.768C80.3647 194.298 79.7047 193.658 79.2247 192.848C78.7447 192.028 78.5047 191.108 78.5047 190.088C78.5047 189.068 78.7447 188.153 79.2247 187.343C79.7047 186.523 80.3697 185.883 81.2197 185.423C82.0697 184.953 83.0197 184.718 84.0697 184.718C84.8897 184.718 85.6397 184.858 86.3197 185.138C86.9997 185.408 87.5797 185.813 88.0597 186.353L87.0847 187.298C86.2947 186.468 85.3097 186.053 84.1297 186.053C83.3497 186.053 82.6447 186.228 82.0147 186.578C81.3847 186.928 80.8897 187.413 80.5297 188.033C80.1797 188.643 80.0047 189.328 80.0047 190.088C80.0047 190.848 80.1797 191.538 80.5297 192.158C80.8897 192.768 81.3847 193.248 82.0147 193.598C82.6447 193.948 83.3497 194.123 84.1297 194.123C85.2997 194.123 86.2847 193.703 87.0847 192.863L88.0597 193.808C87.5797 194.348 86.9947 194.758 86.3047 195.038C85.6247 195.318 84.8747 195.458 84.0547 195.458ZM97.2241 186.143H93.6241V195.338H92.1541V186.143H88.5691V184.838H97.2241V186.143ZM103.142 184.838C104.502 184.838 105.572 185.163 106.352 185.813C107.132 186.463 107.522 187.358 107.522 188.498C107.522 189.638 107.132 190.533 106.352 191.183C105.572 191.833 104.502 192.158 103.142 192.158H100.547V195.338H99.0472V184.838H103.142ZM103.097 190.853C104.047 190.853 104.772 190.653 105.272 190.253C105.772 189.843 106.022 189.258 106.022 188.498C106.022 187.738 105.772 187.158 105.272 186.758C104.772 186.348 104.047 186.143 103.097 186.143H100.547V190.853H103.097ZM109.609 184.838H111.094V192.938L117.304 184.838H118.684V195.338H117.214V187.253L110.989 195.338H109.609V184.838ZM130.777 190.718H128.782V195.338H127.312V190.718H125.302L122.362 195.338H120.607L124.072 189.878L120.862 184.838H122.467L125.272 189.398H127.312V184.838H128.782V189.398H130.792L133.612 184.838H135.217L132.007 189.908L135.472 195.338H133.717L130.777 190.718ZM140.705 190.718H138.515V195.338H137.045V184.838H138.515V189.398H140.735L144.035 184.838H145.64L141.89 189.923L145.82 195.338H144.11L140.705 190.718ZM154.036 192.713H148.456L147.301 195.338H145.756L150.511 184.838H151.996L156.766 195.338H155.191L154.036 192.713ZM153.511 191.513L151.246 186.368L148.981 191.513H153.511Z" fill="black"/>
<path d="M6.35989 302.4C5.29989 302.4 4.34489 302.17 3.49489 301.71C2.64489 301.24 1.97489 300.595 1.48489 299.775C1.00489 298.955 0.764893 298.04 0.764893 297.03C0.764893 296.02 1.00489 295.105 1.48489 294.285C1.97489 293.465 2.64489 292.825 3.49489 292.365C4.34489 291.895 5.29989 291.66 6.35989 291.66C7.40989 291.66 8.35989 291.895 9.20989 292.365C10.0599 292.825 10.7249 293.465 11.2049 294.285C11.6849 295.095 11.9249 296.01 11.9249 297.03C11.9249 298.05 11.6849 298.97 11.2049 299.79C10.7249 300.6 10.0599 301.24 9.20989 301.71C8.35989 302.17 7.40989 302.4 6.35989 302.4ZM6.35989 301.065C7.12989 301.065 7.81989 300.89 8.42989 300.54C9.04989 300.19 9.53489 299.71 9.88489 299.1C10.2449 298.48 10.4249 297.79 10.4249 297.03C10.4249 296.27 10.2449 295.585 9.88489 294.975C9.53489 294.355 9.04989 293.87 8.42989 293.52C7.81989 293.17 7.12989 292.995 6.35989 292.995C5.58989 292.995 4.88989 293.17 4.25989 293.52C3.63989 293.87 3.14989 294.355 2.78989 294.975C2.43989 295.585 2.26489 296.27 2.26489 297.03C2.26489 297.79 2.43989 298.48 2.78989 299.1C3.14989 299.71 3.63989 300.19 4.25989 300.54C4.88989 300.89 5.58989 301.065 6.35989 301.065ZM21.4183 293.085H17.8183V302.28H16.3483V293.085H12.7633V291.78H21.4183V293.085ZM30.8613 300.975V302.28H23.2413V291.78H30.6513V293.085H24.7413V296.31H30.0063V297.585H24.7413V300.975H30.8613ZM43.6569 300.975V304.665H42.2619V302.28H33.2169V291.78H34.7019V300.975H40.5519V291.78H42.0369V300.975H43.6569ZM51.3919 297.63H48.6619V300.315H47.4019V297.63H44.6719V296.445H47.4019V293.745H48.6619V296.445H51.3919V297.63ZM58.8299 302.4C57.7799 302.4 56.8299 302.17 55.9799 301.71C55.1399 301.24 54.4799 300.6 53.9999 299.79C53.5199 298.97 53.2799 298.05 53.2799 297.03C53.2799 296.01 53.5199 295.095 53.9999 294.285C54.4799 293.465 55.1449 292.825 55.9949 292.365C56.8449 291.895 57.7949 291.66 58.8449 291.66C59.6649 291.66 60.4149 291.8 61.0949 292.08C61.7749 292.35 62.3549 292.755 62.8349 293.295L61.8599 294.24C61.0699 293.41 60.0849 292.995 58.9049 292.995C58.1249 292.995 57.4199 293.17 56.7899 293.52C56.1599 293.87 55.6649 294.355 55.3049 294.975C54.9549 295.585 54.7799 296.27 54.7799 297.03C54.7799 297.79 54.9549 298.48 55.3049 299.1C55.6649 299.71 56.1599 300.19 56.7899 300.54C57.4199 300.89 58.1249 301.065 58.9049 301.065C60.0749 301.065 61.0599 300.645 61.8599 299.805L62.8349 300.75C62.3549 301.29 61.7699 301.7 61.0799 301.98C60.3999 302.26 59.6499 302.4 58.8299 302.4ZM69.5065 295.44C70.7565 295.44 71.7115 295.72 72.3715 296.28C73.0415 296.84 73.3765 297.665 73.3765 298.755C73.3765 299.905 73.0165 300.78 72.2965 301.38C71.5865 301.98 70.5665 302.28 69.2365 302.28H64.9015V291.78H66.3865V295.44H69.5065ZM69.1765 301.095C70.0465 301.095 70.7115 300.9 71.1715 300.51C71.6415 300.11 71.8765 299.535 71.8765 298.785C71.8765 297.345 70.9765 296.625 69.1765 296.625H66.3865V301.095H69.1765ZM75.0415 291.78H76.5265V302.28H75.0415V291.78ZM88.829 291.78V302.28H87.329V297.6H81.299V302.28H79.799V291.78H81.299V296.295H87.329V291.78H88.829Z" fill="black"/>
<path d="M6.33003 248.929C5.28003 248.929 4.33003 248.699 3.48003 248.239C2.64003 247.769 1.98003 247.129 1.50003 246.319C1.02003 245.499 0.780029 244.579 0.780029 243.559C0.780029 242.539 1.02003 241.624 1.50003 240.814C1.98003 239.994 2.64503 239.354 3.49503 238.894C4.34503 238.424 5.29503 238.189 6.34503 238.189C7.16503 238.189 7.91503 238.329 8.59503 238.609C9.27503 238.879 9.85503 239.284 10.335 239.824L9.36003 240.769C8.57003 239.939 7.58503 239.524 6.40503 239.524C5.62503 239.524 4.92003 239.699 4.29003 240.049C3.66003 240.399 3.16503 240.884 2.80503 241.504C2.45503 242.114 2.28003 242.799 2.28003 243.559C2.28003 244.319 2.45503 245.009 2.80503 245.629C3.16503 246.239 3.66003 246.719 4.29003 247.069C4.92003 247.419 5.62503 247.594 6.40503 247.594C7.57503 247.594 8.56003 247.174 9.36003 246.334L10.335 247.279C9.85503 247.819 9.27003 248.229 8.58003 248.509C7.90003 248.789 7.15003 248.929 6.33003 248.929ZM19.4994 239.614H15.8994V248.809H14.4294V239.614H10.8444V238.309H19.4994V239.614ZM25.4175 238.309C26.7775 238.309 27.8475 238.634 28.6275 239.284C29.4075 239.934 29.7975 240.829 29.7975 241.969C29.7975 243.109 29.4075 244.004 28.6275 244.654C27.8475 245.304 26.7775 245.629 25.4175 245.629H22.8225V248.809H21.3225V238.309H25.4175ZM25.3725 244.324C26.3225 244.324 27.0475 244.124 27.5475 243.724C28.0475 243.314 28.2975 242.729 28.2975 241.969C28.2975 241.209 28.0475 240.629 27.5475 240.229C27.0475 239.819 26.3225 239.614 25.3725 239.614H22.8225V244.324H25.3725ZM31.884 238.309H33.369V246.409L39.579 238.309H40.959V248.809H39.489V240.724L33.264 248.809H31.884V238.309ZM53.0527 244.189H51.0577V248.809H49.5877V244.189H47.5777L44.6377 248.809H42.8827L46.3477 243.349L43.1377 238.309H44.7427L47.5477 242.869H49.5877V238.309H51.0577V242.869H53.0677L55.8877 238.309H57.4927L54.2827 243.379L57.7477 248.809H55.9927L53.0527 244.189ZM62.9805 244.189H60.7905V248.809H59.3205V238.309H60.7905V242.869H63.0105L66.3105 238.309H67.9155L64.1655 243.394L68.0955 248.809H66.3855L62.9805 244.189ZM76.3116 246.184H70.7316L69.5766 248.809H68.0316L72.7866 238.309H74.2716L79.0416 248.809H77.4666L76.3116 246.184ZM75.7866 244.984L73.5216 239.839L71.2566 244.984H75.7866ZM86.6801 244.159H83.9501V246.844H82.6901V244.159H79.9601V242.974H82.6901V240.274H83.9501V242.974H86.6801V244.159ZM89.3205 238.309H97.2405V239.584H90.8055V242.584H94.0755C95.3255 242.584 96.2755 242.844 96.9255 243.364C97.5755 243.884 97.9005 244.634 97.9005 245.614C97.9005 246.644 97.5455 247.434 96.8355 247.984C96.1355 248.534 95.1305 248.809 93.8205 248.809H89.3205V238.309ZM93.7605 247.624C94.6205 247.624 95.2755 247.459 95.7255 247.129C96.1755 246.799 96.4005 246.314 96.4005 245.674C96.4005 244.404 95.5205 243.769 93.7605 243.769H90.8055V247.624H93.7605ZM105.017 248.929C103.957 248.929 103.002 248.699 102.152 248.239C101.302 247.769 100.632 247.124 100.142 246.304C99.6622 245.484 99.4222 244.569 99.4222 243.559C99.4222 242.549 99.6622 241.634 100.142 240.814C100.632 239.994 101.302 239.354 102.152 238.894C103.002 238.424 103.957 238.189 105.017 238.189C106.067 238.189 107.017 238.424 107.867 238.894C108.717 239.354 109.382 239.994 109.862 240.814C110.342 241.624 110.582 242.539 110.582 243.559C110.582 244.579 110.342 245.499 109.862 246.319C109.382 247.129 108.717 247.769 107.867 248.239C107.017 248.699 106.067 248.929 105.017 248.929ZM105.017 247.594C105.787 247.594 106.477 247.419 107.087 247.069C107.707 246.719 108.192 246.239 108.542 245.629C108.902 245.009 109.082 244.319 109.082 243.559C109.082 242.799 108.902 242.114 108.542 241.504C108.192 240.884 107.707 240.399 107.087 240.049C106.477 239.699 105.787 239.524 105.017 239.524C104.247 239.524 103.547 239.699 102.917 240.049C102.297 240.399 101.807 240.884 101.447 241.504C101.097 242.114 100.922 242.799 100.922 243.559C100.922 244.319 101.097 245.009 101.447 245.629C101.807 246.239 102.297 246.719 102.917 247.069C103.547 247.419 104.247 247.594 105.017 247.594ZM117.102 238.309C118.462 238.309 119.532 238.634 120.312 239.284C121.092 239.934 121.482 240.829 121.482 241.969C121.482 243.109 121.092 244.004 120.312 244.654C119.532 245.304 118.462 245.629 117.102 245.629H114.507V248.809H113.007V238.309H117.102ZM117.057 244.324C118.007 244.324 118.732 244.124 119.232 243.724C119.732 243.314 119.982 242.729 119.982 241.969C119.982 241.209 119.732 240.629 119.232 240.229C118.732 239.819 118.007 239.614 117.057 239.614H114.507V244.324H117.057ZM128.44 248.929C127.38 248.929 126.425 248.699 125.575 248.239C124.725 247.769 124.055 247.124 123.565 246.304C123.085 245.484 122.845 244.569 122.845 243.559C122.845 242.549 123.085 241.634 123.565 240.814C124.055 239.994 124.725 239.354 125.575 238.894C126.425 238.424 127.38 238.189 128.44 238.189C129.49 238.189 130.44 238.424 131.29 238.894C132.14 239.354 132.805 239.994 133.285 240.814C133.765 241.624 134.005 242.539 134.005 243.559C134.005 244.579 133.765 245.499 133.285 246.319C132.805 247.129 132.14 247.769 131.29 248.239C130.44 248.699 129.49 248.929 128.44 248.929ZM128.44 247.594C129.21 247.594 129.9 247.419 130.51 247.069C131.13 246.719 131.615 246.239 131.965 245.629C132.325 245.009 132.505 244.319 132.505 243.559C132.505 242.799 132.325 242.114 131.965 241.504C131.615 240.884 131.13 240.399 130.51 240.049C129.9 239.699 129.21 239.524 128.44 239.524C127.67 239.524 126.97 239.699 126.34 240.049C125.72 240.399 125.23 240.884 124.87 241.504C124.52 242.114 124.345 242.799 124.345 243.559C124.345 244.319 124.52 245.009 124.87 245.629C125.23 246.239 125.72 246.719 126.34 247.069C126.97 247.419 127.67 247.594 128.44 247.594ZM146.142 247.504V251.104H144.747V248.809H136.107L136.092 251.104H134.697L134.712 247.504H135.222C135.882 247.464 136.347 246.944 136.617 245.944C136.887 244.934 137.052 243.514 137.112 241.684L137.217 238.309H144.597V247.504H146.142ZM138.432 241.819C138.382 243.299 138.262 244.524 138.072 245.494C137.892 246.464 137.597 247.134 137.187 247.504H143.112V239.614H138.507L138.432 241.819ZM155.062 246.184H149.482L148.327 248.809H146.782L151.537 238.309H153.022L157.792 248.809H156.217L155.062 246.184ZM154.537 244.984L152.272 239.839L150.007 244.984H154.537Z" fill="black"/>
<path d="M4.63499 355.872C3.84499 355.872 3.07999 355.752 2.33999 355.512C1.60999 355.262 1.03499 354.942 0.61499 354.552L1.16999 353.382C1.56999 353.742 2.07999 354.037 2.69999 354.267C3.32999 354.487 3.97499 354.597 4.63499 354.597C5.50499 354.597 6.15499 354.452 6.58499 354.162C7.01499 353.862 7.22999 353.467 7.22999 352.977C7.22999 352.617 7.10999 352.327 6.86999 352.107C6.63999 351.877 6.34999 351.702 5.99999 351.582C5.65999 351.462 5.17499 351.327 4.54499 351.177C3.75499 350.987 3.11499 350.797 2.62499 350.607C2.14499 350.417 1.72999 350.127 1.37999 349.737C1.03999 349.337 0.86999 348.802 0.86999 348.132C0.86999 347.572 1.01499 347.067 1.30499 346.617C1.60499 346.167 2.05499 345.807 2.65499 345.537C3.25499 345.267 3.99999 345.132 4.88999 345.132C5.50999 345.132 6.11999 345.212 6.71999 345.372C7.31999 345.532 7.83499 345.762 8.26499 346.062L7.76999 347.262C7.32999 346.982 6.85999 346.772 6.35999 346.632C5.85999 346.482 5.36999 346.407 4.88999 346.407C4.03999 346.407 3.39999 346.562 2.96999 346.872C2.54999 347.182 2.33999 347.582 2.33999 348.072C2.33999 348.432 2.45999 348.727 2.69999 348.957C2.93999 349.177 3.23499 349.352 3.58499 349.482C3.94499 349.602 4.42999 349.732 5.03999 349.872C5.82999 350.062 6.46499 350.252 6.94499 350.442C7.42499 350.632 7.83499 350.922 8.17499 351.312C8.52499 351.702 8.69999 352.227 8.69999 352.887C8.69999 353.437 8.54999 353.942 8.24999 354.402C7.94999 354.852 7.49499 355.212 6.88499 355.482C6.27499 355.742 5.52499 355.872 4.63499 355.872ZM14.9864 345.252C16.3464 345.252 17.4164 345.577 18.1964 346.227C18.9764 346.877 19.3664 347.772 19.3664 348.912C19.3664 350.052 18.9764 350.947 18.1964 351.597C17.4164 352.247 16.3464 352.572 14.9864 352.572H12.3914V355.752H10.8914V345.252H14.9864ZM14.9414 351.267C15.8914 351.267 16.6164 351.067 17.1164 350.667C17.6164 350.257 17.8664 349.672 17.8664 348.912C17.8664 348.152 17.6164 347.572 17.1164 347.172C16.6164 346.762 15.8914 346.557 14.9414 346.557H12.3914V351.267H14.9414ZM27.7328 353.127H22.1528L20.9978 355.752H19.4528L24.2078 345.252H25.6928L30.4628 355.752H28.8878L27.7328 353.127ZM27.2078 351.927L24.9428 346.782L22.6778 351.927H27.2078ZM31.0454 351.012H35.0804V352.257H31.0454V351.012ZM45.8989 345.252L41.2339 353.907C40.8639 354.597 40.4289 355.112 39.9289 355.452C39.4289 355.792 38.8839 355.962 38.2939 355.962C37.8339 355.962 37.3639 355.857 36.8839 355.647L37.2739 354.447C37.6439 354.577 37.9739 354.642 38.2639 354.642C38.9239 354.642 39.4689 354.292 39.8989 353.592L40.1389 353.217L35.9089 345.252H37.5139L40.9189 351.912L44.4139 345.252H45.8989ZM47.9235 345.252L50.6685 349.092L53.4135 345.252H55.1685L51.6135 350.292L55.4535 355.752H53.6835L50.6685 351.567L47.6685 355.752H45.9435L49.7685 350.352L46.1985 345.252H47.9235ZM61.6871 355.872C60.6271 355.872 59.6721 355.642 58.8221 355.182C57.9721 354.712 57.3021 354.067 56.8121 353.247C56.3321 352.427 56.0921 351.512 56.0921 350.502C56.0921 349.492 56.3321 348.577 56.8121 347.757C57.3021 346.937 57.9721 346.297 58.8221 345.837C59.6721 345.367 60.6271 345.132 61.6871 345.132C62.7371 345.132 63.6871 345.367 64.5371 345.837C65.3871 346.297 66.0521 346.937 66.5321 347.757C67.0121 348.567 67.2521 349.482 67.2521 350.502C67.2521 351.522 67.0121 352.442 66.5321 353.262C66.0521 354.072 65.3871 354.712 64.5371 355.182C63.6871 355.642 62.7371 355.872 61.6871 355.872ZM61.6871 354.537C62.4571 354.537 63.1471 354.362 63.7571 354.012C64.3771 353.662 64.8621 353.182 65.2121 352.572C65.5721 351.952 65.7521 351.262 65.7521 350.502C65.7521 349.742 65.5721 349.057 65.2121 348.447C64.8621 347.827 64.3771 347.342 63.7571 346.992C63.1471 346.642 62.4571 346.467 61.6871 346.467C60.9171 346.467 60.2171 346.642 59.5871 346.992C58.9671 347.342 58.4771 347.827 58.1171 348.447C57.7671 349.057 57.5921 349.742 57.5921 350.502C57.5921 351.262 57.7671 351.952 58.1171 352.572C58.4771 353.182 58.9671 353.662 59.5871 354.012C60.2171 354.362 60.9171 354.537 61.6871 354.537ZM79.389 354.447V358.047H77.994V355.752H69.354L69.339 358.047H67.944L67.959 354.447H68.469C69.129 354.407 69.594 353.887 69.864 352.887C70.134 351.877 70.299 350.457 70.359 348.627L70.464 345.252H77.844V354.447H79.389ZM71.679 348.762C71.629 350.242 71.509 351.467 71.319 352.437C71.139 353.407 70.844 354.077 70.434 354.447H76.359V346.557H71.754L71.679 348.762ZM92.098 353.127H86.518L85.363 355.752H83.818L88.573 345.252H90.058L94.828 355.752H93.253L92.098 353.127ZM91.573 351.927L89.308 346.782L87.043 351.927H91.573ZM100.943 355.872C99.8929 355.872 98.9429 355.642 98.0929 355.182C97.2529 354.712 96.5929 354.072 96.1129 353.262C95.6329 352.442 95.3929 351.522 95.3929 350.502C95.3929 349.482 95.6329 348.567 96.1129 347.757C96.5929 346.937 97.2579 346.297 98.1079 345.837C98.9579 345.367 99.9079 345.132 100.958 345.132C101.778 345.132 102.528 345.272 103.208 345.552C103.888 345.822 104.468 346.227 104.948 346.767L103.973 347.712C103.183 346.882 102.198 346.467 101.018 346.467C100.238 346.467 99.5329 346.642 98.9029 346.992C98.2729 347.342 97.7779 347.827 97.4179 348.447C97.0679 349.057 96.8929 349.742 96.8929 350.502C96.8929 351.262 97.0679 351.952 97.4179 352.572C97.7779 353.182 98.2729 353.662 98.9029 354.012C99.5329 354.362 100.238 354.537 101.018 354.537C102.188 354.537 103.173 354.117 103.973 353.277L104.948 354.222C104.468 354.762 103.883 355.172 103.193 355.452C102.513 355.732 101.763 355.872 100.943 355.872ZM111.394 355.872C109.994 355.872 108.904 355.472 108.124 354.672C107.344 353.872 106.954 352.722 106.954 351.222V345.252H108.454V351.162C108.454 353.412 109.439 354.537 111.409 354.537C112.369 354.537 113.104 354.262 113.614 353.712C114.124 353.152 114.379 352.302 114.379 351.162V345.252H115.834V351.222C115.834 352.732 115.444 353.887 114.664 354.687C113.884 355.477 112.794 355.872 111.394 355.872ZM128.644 355.752L128.629 348.102L124.834 354.477H124.144L120.349 348.147V355.752H118.909V345.252H120.139L124.519 352.632L128.839 345.252H130.069L130.084 355.752H128.644ZM140.855 354.447V355.752H133.235V345.252H140.645V346.557H134.735V349.782H140V351.057H134.735V354.447H140.855ZM152.314 345.252V355.752H151.084L144.784 347.922V355.752H143.284V345.252H144.514L150.814 353.082V345.252H152.314Z" fill="black"/>
<path d="M303.402 33.7229V44.2229H301.917V35.0279H299.547V33.7229H303.402ZM314.834 41.6429H312.839V44.2229H311.384V41.6429H305.549V40.5929L310.919 33.7229H312.539L307.394 40.3529H311.429V38.0729H312.839V40.3529H314.834V41.6429ZM320.023 44.3429C319.193 44.3429 318.453 44.1329 317.803 43.7129C317.163 43.2829 316.658 42.6629 316.288 41.8529C315.918 41.0429 315.733 40.0829 315.733 38.9729C315.733 37.8629 315.918 36.9029 316.288 36.0929C316.658 35.2829 317.163 34.6679 317.803 34.2479C318.453 33.8179 319.193 33.6029 320.023 33.6029C320.843 33.6029 321.573 33.8179 322.213 34.2479C322.863 34.6679 323.373 35.2829 323.743 36.0929C324.113 36.9029 324.298 37.8629 324.298 38.9729C324.298 40.0829 324.113 41.0429 323.743 41.8529C323.373 42.6629 322.863 43.2829 322.213 43.7129C321.573 44.1329 320.843 44.3429 320.023 44.3429ZM320.023 43.0079C320.863 43.0079 321.533 42.6629 322.033 41.9729C322.543 41.2829 322.798 40.2829 322.798 38.9729C322.798 37.6629 322.543 36.6629 322.033 35.9729C321.533 35.2829 320.863 34.9379 320.023 34.9379C319.173 34.9379 318.493 35.2829 317.983 35.9729C317.483 36.6629 317.233 37.6629 317.233 38.9729C317.233 40.2829 317.483 41.2829 317.983 41.9729C318.493 42.6629 319.173 43.0079 320.023 43.0079ZM330.028 44.3429C329.198 44.3429 328.458 44.1329 327.808 43.7129C327.168 43.2829 326.663 42.6629 326.293 41.8529C325.923 41.0429 325.738 40.0829 325.738 38.9729C325.738 37.8629 325.923 36.9029 326.293 36.0929C326.663 35.2829 327.168 34.6679 327.808 34.2479C328.458 33.8179 329.198 33.6029 330.028 33.6029C330.848 33.6029 331.578 33.8179 332.218 34.2479C332.868 34.6679 333.378 35.2829 333.748 36.0929C334.118 36.9029 334.303 37.8629 334.303 38.9729C334.303 40.0829 334.118 41.0429 333.748 41.8529C333.378 42.6629 332.868 43.2829 332.218 43.7129C331.578 44.1329 330.848 44.3429 330.028 44.3429ZM330.028 43.0079C330.868 43.0079 331.538 42.6629 332.038 41.9729C332.548 41.2829 332.803 40.2829 332.803 38.9729C332.803 37.6629 332.548 36.6629 332.038 35.9729C331.538 35.2829 330.868 34.9379 330.028 34.9379C329.178 34.9379 328.498 35.2829 327.988 35.9729C327.488 36.6629 327.238 37.6629 327.238 38.9729C327.238 40.2829 327.488 41.2829 327.988 41.9729C328.498 42.6629 329.178 43.0079 330.028 43.0079ZM347.646 44.2229L345.381 40.9979C345.101 41.0179 344.881 41.0279 344.721 41.0279H342.126V44.2229H340.626V33.7229H344.721C346.081 33.7229 347.151 34.0479 347.931 34.6979C348.711 35.3479 349.101 36.2429 349.101 37.3829C349.101 38.1929 348.901 38.8829 348.501 39.4529C348.101 40.0229 347.531 40.4379 346.791 40.6979L349.281 44.2229H347.646ZM344.676 39.7529C345.626 39.7529 346.351 39.5479 346.851 39.1379C347.351 38.7279 347.601 38.1429 347.601 37.3829C347.601 36.6229 347.351 36.0429 346.851 35.6429C346.351 35.2329 345.626 35.0279 344.676 35.0279H342.126V39.7529H344.676ZM355.874 44.3429C354.474 44.3429 353.384 43.9429 352.604 43.1429C351.824 42.3429 351.434 41.1929 351.434 39.6929V33.7229H352.934V39.6329C352.934 41.8829 353.919 43.0079 355.889 43.0079C356.849 43.0079 357.584 42.7329 358.094 42.1829C358.604 41.6229 358.859 40.7729 358.859 39.6329V33.7229H360.314V39.6929C360.314 41.2029 359.924 42.3579 359.144 43.1579C358.364 43.9479 357.274 44.3429 355.874 44.3429ZM370.455 38.7779C371.065 38.9479 371.545 39.2579 371.895 39.7079C372.245 40.1479 372.42 40.7079 372.42 41.3879C372.42 42.2979 372.075 42.9979 371.385 43.4879C370.705 43.9779 369.71 44.2229 368.4 44.2229H363.39V33.7229H368.1C369.3 33.7229 370.225 33.9629 370.875 34.4429C371.535 34.9229 371.865 35.5879 371.865 36.4379C371.865 36.9879 371.735 37.4629 371.475 37.8629C371.225 38.2629 370.885 38.5679 370.455 38.7779ZM364.89 34.9379V38.2979H367.965C368.735 38.2979 369.325 38.1579 369.735 37.8779C370.155 37.5879 370.365 37.1679 370.365 36.6179C370.365 36.0679 370.155 35.6529 369.735 35.3729C369.325 35.0829 368.735 34.9379 367.965 34.9379H364.89ZM368.34 43.0079C369.19 43.0079 369.83 42.8679 370.26 42.5879C370.69 42.3079 370.905 41.8679 370.905 41.2679C370.905 40.0979 370.05 39.5129 368.34 39.5129H364.89V43.0079H368.34Z" fill="black"/>
<path d="M302.553 90.1569C303.243 90.1569 303.858 90.2869 304.398 90.5469C304.948 90.8069 305.378 91.1819 305.688 91.6719C305.998 92.1519 306.153 92.7069 306.153 93.3369C306.153 93.9969 305.988 94.5769 305.658 95.0769C305.338 95.5769 304.893 95.9669 304.323 96.2469C303.763 96.5169 303.133 96.6519 302.433 96.6519C301.023 96.6519 299.933 96.1969 299.163 95.2869C298.403 94.3769 298.023 93.0869 298.023 91.4169C298.023 90.2469 298.228 89.2519 298.638 88.4319C299.058 87.6019 299.638 86.9769 300.378 86.5569C301.128 86.1269 301.998 85.9119 302.988 85.9119C303.498 85.9119 303.978 85.9669 304.428 86.0769C304.878 86.1769 305.268 86.3269 305.598 86.5269L305.028 87.6969C304.528 87.3669 303.858 87.2019 303.018 87.2019C301.928 87.2019 301.073 87.5419 300.453 88.2219C299.833 88.8919 299.523 89.8719 299.523 91.1619C299.523 91.3219 299.528 91.4469 299.538 91.5369C299.838 91.0869 300.248 90.7469 300.768 90.5169C301.298 90.2769 301.893 90.1569 302.553 90.1569ZM302.373 95.4369C303.063 95.4369 303.623 95.2519 304.053 94.8819C304.483 94.5119 304.698 94.0169 304.698 93.3969C304.698 92.7769 304.478 92.2869 304.038 91.9269C303.608 91.5569 303.028 91.3719 302.298 91.3719C301.828 91.3719 301.408 91.4619 301.038 91.6419C300.678 91.8219 300.393 92.0669 300.183 92.3769C299.983 92.6869 299.883 93.0319 299.883 93.4119C299.883 93.7819 299.978 94.1219 300.168 94.4319C300.368 94.7319 300.653 94.9769 301.023 95.1669C301.403 95.3469 301.853 95.4369 302.373 95.4369ZM311.571 96.6519C310.741 96.6519 310.001 96.4419 309.351 96.0219C308.711 95.5919 308.206 94.9719 307.836 94.1619C307.466 93.3519 307.281 92.3919 307.281 91.2819C307.281 90.1719 307.466 89.2119 307.836 88.4019C308.206 87.5919 308.711 86.9769 309.351 86.5569C310.001 86.1269 310.741 85.9119 311.571 85.9119C312.391 85.9119 313.121 86.1269 313.761 86.5569C314.411 86.9769 314.921 87.5919 315.291 88.4019C315.661 89.2119 315.846 90.1719 315.846 91.2819C315.846 92.3919 315.661 93.3519 315.291 94.1619C314.921 94.9719 314.411 95.5919 313.761 96.0219C313.121 96.4419 312.391 96.6519 311.571 96.6519ZM311.571 95.3169C312.411 95.3169 313.081 94.9719 313.581 94.2819C314.091 93.5919 314.346 92.5919 314.346 91.2819C314.346 89.9719 314.091 88.9719 313.581 88.2819C313.081 87.5919 312.411 87.2469 311.571 87.2469C310.721 87.2469 310.041 87.5919 309.531 88.2819C309.031 88.9719 308.781 89.9719 308.781 91.2819C308.781 92.5919 309.031 93.5919 309.531 94.2819C310.041 94.9719 310.721 95.3169 311.571 95.3169ZM321.576 96.6519C320.746 96.6519 320.006 96.4419 319.356 96.0219C318.716 95.5919 318.211 94.9719 317.841 94.1619C317.471 93.3519 317.286 92.3919 317.286 91.2819C317.286 90.1719 317.471 89.2119 317.841 88.4019C318.211 87.5919 318.716 86.9769 319.356 86.5569C320.006 86.1269 320.746 85.9119 321.576 85.9119C322.396 85.9119 323.126 86.1269 323.766 86.5569C324.416 86.9769 324.926 87.5919 325.296 88.4019C325.666 89.2119 325.851 90.1719 325.851 91.2819C325.851 92.3919 325.666 93.3519 325.296 94.1619C324.926 94.9719 324.416 95.5919 323.766 96.0219C323.126 96.4419 322.396 96.6519 321.576 96.6519ZM321.576 95.3169C322.416 95.3169 323.086 94.9719 323.586 94.2819C324.096 93.5919 324.351 92.5919 324.351 91.2819C324.351 89.9719 324.096 88.9719 323.586 88.2819C323.086 87.5919 322.416 87.2469 321.576 87.2469C320.726 87.2469 320.046 87.5919 319.536 88.2819C319.036 88.9719 318.786 89.9719 318.786 91.2819C318.786 92.5919 319.036 93.5919 319.536 94.2819C320.046 94.9719 320.726 95.3169 321.576 95.3169ZM347.251 96.5319L344.986 93.3069C344.706 93.3269 344.486 93.3369 344.326 93.3369H341.731V96.5319H340.231V86.0319H344.326C345.686 86.0319 346.756 86.3569 347.536 87.0069C348.316 87.6569 348.706 88.5519 348.706 89.6919C348.706 90.5019 348.506 91.1919 348.106 91.7619C347.706 92.3319 347.136 92.7469 346.396 93.0069L348.886 96.5319H347.251ZM344.281 92.0619C345.231 92.0619 345.956 91.8569 346.456 91.4469C346.956 91.0369 347.206 90.4519 347.206 89.6919C347.206 88.9319 346.956 88.3519 346.456 87.9519C345.956 87.5419 345.231 87.3369 344.281 87.3369H341.731V92.0619H344.281ZM355.479 96.6519C354.079 96.6519 352.989 96.2519 352.209 95.4519C351.429 94.6519 351.039 93.5019 351.039 92.0019V86.0319H352.539V91.9419C352.539 94.1919 353.524 95.3169 355.494 95.3169C356.454 95.3169 357.189 95.0419 357.699 94.4919C358.209 93.9319 358.464 93.0819 358.464 91.9419V86.0319H359.919V92.0019C359.919 93.5119 359.529 94.6669 358.749 95.4669C357.969 96.2569 356.879 96.6519 355.479 96.6519ZM370.06 91.0869C370.67 91.2569 371.15 91.5669 371.5 92.0169C371.85 92.4569 372.025 93.0169 372.025 93.6969C372.025 94.6069 371.68 95.3069 370.99 95.7969C370.31 96.2869 369.315 96.5319 368.005 96.5319H362.995V86.0319H367.705C368.905 86.0319 369.83 86.2719 370.48 86.7519C371.14 87.2319 371.47 87.8969 371.47 88.7469C371.47 89.2969 371.34 89.7719 371.08 90.1719C370.83 90.5719 370.49 90.8769 370.06 91.0869ZM364.495 87.2469V90.6069H367.57C368.34 90.6069 368.93 90.4669 369.34 90.1869C369.76 89.8969 369.97 89.4769 369.97 88.9269C369.97 88.3769 369.76 87.9619 369.34 87.6819C368.93 87.3919 368.34 87.2469 367.57 87.2469H364.495ZM367.945 95.3169C368.795 95.3169 369.435 95.1769 369.865 94.8969C370.295 94.6169 370.51 94.1769 370.51 93.5769C370.51 92.4069 369.655 91.8219 367.945 91.8219H364.495V95.3169H367.945Z" fill="black"/>
<path d="M304.443 143.336C305.043 143.566 305.503 143.896 305.823 144.326C306.143 144.756 306.303 145.271 306.303 145.871C306.303 146.501 306.133 147.051 305.793 147.521C305.453 147.981 304.968 148.336 304.338 148.586C303.708 148.836 302.968 148.961 302.118 148.961C301.278 148.961 300.543 148.836 299.913 148.586C299.293 148.336 298.813 147.981 298.473 147.521C298.133 147.051 297.963 146.501 297.963 145.871C297.963 145.271 298.118 144.756 298.428 144.326C298.748 143.896 299.208 143.566 299.808 143.336C299.328 143.106 298.963 142.801 298.713 142.421C298.463 142.041 298.338 141.591 298.338 141.071C298.338 140.491 298.493 139.986 298.803 139.556C299.123 139.126 299.568 138.796 300.138 138.566C300.708 138.336 301.368 138.221 302.118 138.221C302.878 138.221 303.543 138.336 304.113 138.566C304.693 138.796 305.138 139.126 305.448 139.556C305.768 139.986 305.928 140.491 305.928 141.071C305.928 141.581 305.798 142.031 305.538 142.421C305.288 142.801 304.923 143.106 304.443 143.336ZM302.118 139.436C301.408 139.436 300.848 139.591 300.438 139.901C300.028 140.201 299.823 140.611 299.823 141.131C299.823 141.651 300.023 142.061 300.423 142.361C300.833 142.661 301.398 142.811 302.118 142.811C302.848 142.811 303.418 142.661 303.828 142.361C304.248 142.061 304.458 141.651 304.458 141.131C304.458 140.611 304.243 140.201 303.813 139.901C303.393 139.591 302.828 139.436 302.118 139.436ZM302.118 147.746C302.948 147.746 303.603 147.576 304.083 147.236C304.563 146.886 304.803 146.416 304.803 145.826C304.803 145.246 304.563 144.791 304.083 144.461C303.603 144.121 302.948 143.951 302.118 143.951C301.288 143.951 300.638 144.121 300.168 144.461C299.698 144.791 299.463 145.246 299.463 145.826C299.463 146.416 299.698 146.886 300.168 147.236C300.638 147.576 301.288 147.746 302.118 147.746ZM311.967 148.961C311.137 148.961 310.397 148.751 309.747 148.331C309.107 147.901 308.602 147.281 308.232 146.471C307.862 145.661 307.677 144.701 307.677 143.591C307.677 142.481 307.862 141.521 308.232 140.711C308.602 139.901 309.107 139.286 309.747 138.866C310.397 138.436 311.137 138.221 311.967 138.221C312.787 138.221 313.517 138.436 314.157 138.866C314.807 139.286 315.317 139.901 315.687 140.711C316.057 141.521 316.242 142.481 316.242 143.591C316.242 144.701 316.057 145.661 315.687 146.471C315.317 147.281 314.807 147.901 314.157 148.331C313.517 148.751 312.787 148.961 311.967 148.961ZM311.967 147.626C312.807 147.626 313.477 147.281 313.977 146.591C314.487 145.901 314.742 144.901 314.742 143.591C314.742 142.281 314.487 141.281 313.977 140.591C313.477 139.901 312.807 139.556 311.967 139.556C311.117 139.556 310.437 139.901 309.927 140.591C309.427 141.281 309.177 142.281 309.177 143.591C309.177 144.901 309.427 145.901 309.927 146.591C310.437 147.281 311.117 147.626 311.967 147.626ZM321.972 148.961C321.142 148.961 320.402 148.751 319.752 148.331C319.112 147.901 318.607 147.281 318.237 146.471C317.867 145.661 317.682 144.701 317.682 143.591C317.682 142.481 317.867 141.521 318.237 140.711C318.607 139.901 319.112 139.286 319.752 138.866C320.402 138.436 321.142 138.221 321.972 138.221C322.792 138.221 323.522 138.436 324.162 138.866C324.812 139.286 325.322 139.901 325.692 140.711C326.062 141.521 326.247 142.481 326.247 143.591C326.247 144.701 326.062 145.661 325.692 146.471C325.322 147.281 324.812 147.901 324.162 148.331C323.522 148.751 322.792 148.961 321.972 148.961ZM321.972 147.626C322.812 147.626 323.482 147.281 323.982 146.591C324.492 145.901 324.747 144.901 324.747 143.591C324.747 142.281 324.492 141.281 323.982 140.591C323.482 139.901 322.812 139.556 321.972 139.556C321.122 139.556 320.442 139.901 319.932 140.591C319.432 141.281 319.182 142.281 319.182 143.591C319.182 144.901 319.432 145.901 319.932 146.591C320.442 147.281 321.122 147.626 321.972 147.626ZM347.646 148.841L345.381 145.616C345.101 145.636 344.881 145.646 344.721 145.646H342.126V148.841H340.626V138.341H344.721C346.081 138.341 347.151 138.666 347.931 139.316C348.711 139.966 349.101 140.861 349.101 142.001C349.101 142.811 348.901 143.501 348.501 144.071C348.101 144.641 347.531 145.056 346.791 145.316L349.281 148.841H347.646ZM344.676 144.371C345.626 144.371 346.351 144.166 346.851 143.756C347.351 143.346 347.601 142.761 347.601 142.001C347.601 141.241 347.351 140.661 346.851 140.261C346.351 139.851 345.626 139.646 344.676 139.646H342.126V144.371H344.676ZM355.875 148.961C354.475 148.961 353.385 148.561 352.605 147.761C351.825 146.961 351.435 145.811 351.435 144.311V138.341H352.935V144.251C352.935 146.501 353.92 147.626 355.89 147.626C356.85 147.626 357.585 147.351 358.095 146.801C358.605 146.241 358.86 145.391 358.86 144.251V138.341H360.315V144.311C360.315 145.821 359.925 146.976 359.145 147.776C358.365 148.566 357.275 148.961 355.875 148.961ZM370.455 143.396C371.065 143.566 371.545 143.876 371.895 144.326C372.245 144.766 372.42 145.326 372.42 146.006C372.42 146.916 372.075 147.616 371.385 148.106C370.705 148.596 369.71 148.841 368.4 148.841H363.39V138.341H368.1C369.3 138.341 370.225 138.581 370.875 139.061C371.535 139.541 371.865 140.206 371.865 141.056C371.865 141.606 371.735 142.081 371.475 142.481C371.225 142.881 370.885 143.186 370.455 143.396ZM364.89 139.556V142.916H367.965C368.735 142.916 369.325 142.776 369.735 142.496C370.155 142.206 370.365 141.786 370.365 141.236C370.365 140.686 370.155 140.271 369.735 139.991C369.325 139.701 368.735 139.556 367.965 139.556H364.89ZM368.34 147.626C369.19 147.626 369.83 147.486 370.26 147.206C370.69 146.926 370.905 146.486 370.905 145.886C370.905 144.716 370.05 144.131 368.34 144.131H364.89V147.626H368.34Z" fill="black"/>
<path d="M303.402 190.65V201.15H301.917V191.955H299.547V190.65H303.402ZM309.989 201.27C309.159 201.27 308.419 201.06 307.769 200.64C307.129 200.21 306.624 199.59 306.254 198.78C305.884 197.97 305.699 197.01 305.699 195.9C305.699 194.79 305.884 193.83 306.254 193.02C306.624 192.21 307.129 191.595 307.769 191.175C308.419 190.745 309.159 190.53 309.989 190.53C310.809 190.53 311.539 190.745 312.179 191.175C312.829 191.595 313.339 192.21 313.709 193.02C314.079 193.83 314.264 194.79 314.264 195.9C314.264 197.01 314.079 197.97 313.709 198.78C313.339 199.59 312.829 200.21 312.179 200.64C311.539 201.06 310.809 201.27 309.989 201.27ZM309.989 199.935C310.829 199.935 311.499 199.59 311.999 198.9C312.509 198.21 312.764 197.21 312.764 195.9C312.764 194.59 312.509 193.59 311.999 192.9C311.499 192.21 310.829 191.865 309.989 191.865C309.139 191.865 308.459 192.21 307.949 192.9C307.449 193.59 307.199 194.59 307.199 195.9C307.199 197.21 307.449 198.21 307.949 198.9C308.459 199.59 309.139 199.935 309.989 199.935ZM319.994 201.27C319.164 201.27 318.424 201.06 317.774 200.64C317.134 200.21 316.629 199.59 316.259 198.78C315.889 197.97 315.704 197.01 315.704 195.9C315.704 194.79 315.889 193.83 316.259 193.02C316.629 192.21 317.134 191.595 317.774 191.175C318.424 190.745 319.164 190.53 319.994 190.53C320.814 190.53 321.544 190.745 322.184 191.175C322.834 191.595 323.344 192.21 323.714 193.02C324.084 193.83 324.269 194.79 324.269 195.9C324.269 197.01 324.084 197.97 323.714 198.78C323.344 199.59 322.834 200.21 322.184 200.64C321.544 201.06 320.814 201.27 319.994 201.27ZM319.994 199.935C320.834 199.935 321.504 199.59 322.004 198.9C322.514 198.21 322.769 197.21 322.769 195.9C322.769 194.59 322.514 193.59 322.004 192.9C321.504 192.21 320.834 191.865 319.994 191.865C319.144 191.865 318.464 192.21 317.954 192.9C317.454 193.59 317.204 194.59 317.204 195.9C317.204 197.21 317.454 198.21 317.954 198.9C318.464 199.59 319.144 199.935 319.994 199.935ZM329.999 201.27C329.169 201.27 328.429 201.06 327.779 200.64C327.139 200.21 326.634 199.59 326.264 198.78C325.894 197.97 325.709 197.01 325.709 195.9C325.709 194.79 325.894 193.83 326.264 193.02C326.634 192.21 327.139 191.595 327.779 191.175C328.429 190.745 329.169 190.53 329.999 190.53C330.819 190.53 331.549 190.745 332.189 191.175C332.839 191.595 333.349 192.21 333.719 193.02C334.089 193.83 334.274 194.79 334.274 195.9C334.274 197.01 334.089 197.97 333.719 198.78C333.349 199.59 332.839 200.21 332.189 200.64C331.549 201.06 330.819 201.27 329.999 201.27ZM329.999 199.935C330.839 199.935 331.509 199.59 332.009 198.9C332.519 198.21 332.774 197.21 332.774 195.9C332.774 194.59 332.519 193.59 332.009 192.9C331.509 192.21 330.839 191.865 329.999 191.865C329.149 191.865 328.469 192.21 327.959 192.9C327.459 193.59 327.209 194.59 327.209 195.9C327.209 197.21 327.459 198.21 327.959 198.9C328.469 199.59 329.149 199.935 329.999 199.935ZM347.617 201.15L345.352 197.925C345.072 197.945 344.852 197.955 344.692 197.955H342.097V201.15H340.597V190.65H344.692C346.052 190.65 347.122 190.975 347.902 191.625C348.682 192.275 349.072 193.17 349.072 194.31C349.072 195.12 348.872 195.81 348.472 196.38C348.072 196.95 347.502 197.365 346.762 197.625L349.252 201.15H347.617ZM344.647 196.68C345.597 196.68 346.322 196.475 346.822 196.065C347.322 195.655 347.572 195.07 347.572 194.31C347.572 193.55 347.322 192.97 346.822 192.57C346.322 192.16 345.597 191.955 344.647 191.955H342.097V196.68H344.647ZM355.845 201.27C354.445 201.27 353.355 200.87 352.575 200.07C351.795 199.27 351.405 198.12 351.405 196.62V190.65H352.905V196.56C352.905 198.81 353.89 199.935 355.86 199.935C356.82 199.935 357.555 199.66 358.065 199.11C358.575 198.55 358.83 197.7 358.83 196.56V190.65H360.285V196.62C360.285 198.13 359.895 199.285 359.115 200.085C358.335 200.875 357.245 201.27 355.845 201.27ZM370.425 195.705C371.035 195.875 371.515 196.185 371.865 196.635C372.215 197.075 372.39 197.635 372.39 198.315C372.39 199.225 372.045 199.925 371.355 200.415C370.675 200.905 369.68 201.15 368.37 201.15H363.36V190.65H368.07C369.27 190.65 370.195 190.89 370.845 191.37C371.505 191.85 371.835 192.515 371.835 193.365C371.835 193.915 371.705 194.39 371.445 194.79C371.195 195.19 370.855 195.495 370.425 195.705ZM364.86 191.865V195.225H367.935C368.705 195.225 369.295 195.085 369.705 194.805C370.125 194.515 370.335 194.095 370.335 193.545C370.335 192.995 370.125 192.58 369.705 192.3C369.295 192.01 368.705 191.865 367.935 191.865H364.86ZM368.31 199.935C369.16 199.935 369.8 199.795 370.23 199.515C370.66 199.235 370.875 198.795 370.875 198.195C370.875 197.025 370.02 196.44 368.31 196.44H364.86V199.935H368.31Z" fill="black"/>
<path d="M308.589 252.154V253.459H301.044V252.439L305.319 248.314C305.839 247.814 306.189 247.384 306.369 247.024C306.549 246.654 306.639 246.284 306.639 245.914C306.639 245.364 306.444 244.939 306.054 244.639C305.674 244.329 305.124 244.174 304.404 244.174C303.244 244.174 302.349 244.554 301.719 245.314L300.699 244.429C301.109 243.929 301.644 243.539 302.304 243.259C302.974 242.979 303.719 242.839 304.539 242.839C305.639 242.839 306.514 243.104 307.164 243.634C307.814 244.154 308.139 244.864 308.139 245.764C308.139 246.324 308.019 246.854 307.779 247.354C307.539 247.854 307.084 248.424 306.414 249.064L303.204 252.154H308.589ZM313.077 242.959V253.459H311.592V244.264H309.222V242.959H313.077ZM319.664 253.579C318.834 253.579 318.094 253.369 317.444 252.949C316.804 252.519 316.299 251.899 315.929 251.089C315.559 250.279 315.374 249.319 315.374 248.209C315.374 247.099 315.559 246.139 315.929 245.329C316.299 244.519 316.804 243.904 317.444 243.484C318.094 243.054 318.834 242.839 319.664 242.839C320.484 242.839 321.214 243.054 321.854 243.484C322.504 243.904 323.014 244.519 323.384 245.329C323.754 246.139 323.939 247.099 323.939 248.209C323.939 249.319 323.754 250.279 323.384 251.089C323.014 251.899 322.504 252.519 321.854 252.949C321.214 253.369 320.484 253.579 319.664 253.579ZM319.664 252.244C320.504 252.244 321.174 251.899 321.674 251.209C322.184 250.519 322.439 249.519 322.439 248.209C322.439 246.899 322.184 245.899 321.674 245.209C321.174 244.519 320.504 244.174 319.664 244.174C318.814 244.174 318.134 244.519 317.624 245.209C317.124 245.899 316.874 246.899 316.874 248.209C316.874 249.519 317.124 250.519 317.624 251.209C318.134 251.899 318.814 252.244 319.664 252.244ZM329.669 253.579C328.839 253.579 328.099 253.369 327.449 252.949C326.809 252.519 326.304 251.899 325.934 251.089C325.564 250.279 325.379 249.319 325.379 248.209C325.379 247.099 325.564 246.139 325.934 245.329C326.304 244.519 326.809 243.904 327.449 243.484C328.099 243.054 328.839 242.839 329.669 242.839C330.489 242.839 331.219 243.054 331.859 243.484C332.509 243.904 333.019 244.519 333.389 245.329C333.759 246.139 333.944 247.099 333.944 248.209C333.944 249.319 333.759 250.279 333.389 251.089C333.019 251.899 332.509 252.519 331.859 252.949C331.219 253.369 330.489 253.579 329.669 253.579ZM329.669 252.244C330.509 252.244 331.179 251.899 331.679 251.209C332.189 250.519 332.444 249.519 332.444 248.209C332.444 246.899 332.189 245.899 331.679 245.209C331.179 244.519 330.509 244.174 329.669 244.174C328.819 244.174 328.139 244.519 327.629 245.209C327.129 245.899 326.879 246.899 326.879 248.209C326.879 249.519 327.129 250.519 327.629 251.209C328.139 251.899 328.819 252.244 329.669 252.244ZM347.287 253.459L345.022 250.234C344.742 250.254 344.522 250.264 344.362 250.264H341.767V253.459H340.267V242.959H344.362C345.722 242.959 346.792 243.284 347.572 243.934C348.352 244.584 348.742 245.479 348.742 246.619C348.742 247.429 348.542 248.119 348.142 248.689C347.742 249.259 347.172 249.674 346.432 249.934L348.922 253.459H347.287ZM344.317 248.989C345.267 248.989 345.992 248.784 346.492 248.374C346.992 247.964 347.242 247.379 347.242 246.619C347.242 245.859 346.992 245.279 346.492 244.879C345.992 244.469 345.267 244.264 344.317 244.264H341.767V248.989H344.317ZM355.515 253.579C354.115 253.579 353.025 253.179 352.245 252.379C351.465 251.579 351.075 250.429 351.075 248.929V242.959H352.575V248.869C352.575 251.119 353.56 252.244 355.53 252.244C356.49 252.244 357.225 251.969 357.735 251.419C358.245 250.859 358.5 250.009 358.5 248.869V242.959H359.955V248.929C359.955 250.439 359.565 251.594 358.785 252.394C358.005 253.184 356.915 253.579 355.515 253.579ZM370.096 248.014C370.706 248.184 371.186 248.494 371.536 248.944C371.886 249.384 372.061 249.944 372.061 250.624C372.061 251.534 371.716 252.234 371.026 252.724C370.346 253.214 369.351 253.459 368.041 253.459H363.031V242.959H367.741C368.941 242.959 369.866 243.199 370.516 243.679C371.176 244.159 371.506 244.824 371.506 245.674C371.506 246.224 371.376 246.699 371.116 247.099C370.866 247.499 370.526 247.804 370.096 248.014ZM364.531 244.174V247.534H367.606C368.376 247.534 368.966 247.394 369.376 247.114C369.796 246.824 370.006 246.404 370.006 245.854C370.006 245.304 369.796 244.889 369.376 244.609C368.966 244.319 368.376 244.174 367.606 244.174H364.531ZM367.981 252.244C368.831 252.244 369.471 252.104 369.901 251.824C370.331 251.544 370.546 251.104 370.546 250.504C370.546 249.334 369.691 248.749 367.981 248.749H364.531V252.244H367.981Z" fill="black"/>
<path d="M304.342 304.463V305.768H296.797V304.748L301.072 300.623C301.592 300.123 301.942 299.693 302.122 299.333C302.302 298.963 302.392 298.593 302.392 298.223C302.392 297.673 302.197 297.248 301.807 296.948C301.427 296.638 300.877 296.483 300.157 296.483C298.997 296.483 298.102 296.863 297.472 297.623L296.452 296.738C296.862 296.238 297.397 295.848 298.057 295.568C298.727 295.288 299.472 295.148 300.292 295.148C301.392 295.148 302.267 295.413 302.917 295.943C303.567 296.463 303.892 297.173 303.892 298.073C303.892 298.633 303.772 299.163 303.532 299.663C303.292 300.163 302.837 300.733 302.167 301.373L298.957 304.463H304.342ZM312.955 304.463V305.768H305.41V304.748L309.685 300.623C310.205 300.123 310.555 299.693 310.735 299.333C310.915 298.963 311.005 298.593 311.005 298.223C311.005 297.673 310.81 297.248 310.42 296.948C310.04 296.638 309.49 296.483 308.77 296.483C307.61 296.483 306.715 296.863 306.085 297.623L305.065 296.738C305.475 296.238 306.01 295.848 306.67 295.568C307.34 295.288 308.085 295.148 308.905 295.148C310.005 295.148 310.88 295.413 311.53 295.943C312.18 296.463 312.505 297.173 312.505 298.073C312.505 298.633 312.385 299.163 312.145 299.663C311.905 300.163 311.45 300.733 310.78 301.373L307.57 304.463H312.955ZM318.434 305.888C317.604 305.888 316.864 305.678 316.214 305.258C315.574 304.828 315.069 304.208 314.699 303.398C314.329 302.588 314.144 301.628 314.144 300.518C314.144 299.408 314.329 298.448 314.699 297.638C315.069 296.828 315.574 296.213 316.214 295.793C316.864 295.363 317.604 295.148 318.434 295.148C319.254 295.148 319.984 295.363 320.624 295.793C321.274 296.213 321.784 296.828 322.154 297.638C322.524 298.448 322.709 299.408 322.709 300.518C322.709 301.628 322.524 302.588 322.154 303.398C321.784 304.208 321.274 304.828 320.624 305.258C319.984 305.678 319.254 305.888 318.434 305.888ZM318.434 304.553C319.274 304.553 319.944 304.208 320.444 303.518C320.954 302.828 321.209 301.828 321.209 300.518C321.209 299.208 320.954 298.208 320.444 297.518C319.944 296.828 319.274 296.483 318.434 296.483C317.584 296.483 316.904 296.828 316.394 297.518C315.894 298.208 315.644 299.208 315.644 300.518C315.644 301.828 315.894 302.828 316.394 303.518C316.904 304.208 317.584 304.553 318.434 304.553ZM328.439 305.888C327.609 305.888 326.869 305.678 326.219 305.258C325.579 304.828 325.074 304.208 324.704 303.398C324.334 302.588 324.149 301.628 324.149 300.518C324.149 299.408 324.334 298.448 324.704 297.638C325.074 296.828 325.579 296.213 326.219 295.793C326.869 295.363 327.609 295.148 328.439 295.148C329.259 295.148 329.989 295.363 330.629 295.793C331.279 296.213 331.789 296.828 332.159 297.638C332.529 298.448 332.714 299.408 332.714 300.518C332.714 301.628 332.529 302.588 332.159 303.398C331.789 304.208 331.279 304.828 330.629 305.258C329.989 305.678 329.259 305.888 328.439 305.888ZM328.439 304.553C329.279 304.553 329.949 304.208 330.449 303.518C330.959 302.828 331.214 301.828 331.214 300.518C331.214 299.208 330.959 298.208 330.449 297.518C329.949 296.828 329.279 296.483 328.439 296.483C327.589 296.483 326.909 296.828 326.399 297.518C325.899 298.208 325.649 299.208 325.649 300.518C325.649 301.828 325.899 302.828 326.399 303.518C326.909 304.208 327.589 304.553 328.439 304.553ZM346.057 305.768L343.792 302.543C343.512 302.563 343.292 302.573 343.132 302.573H340.537V305.768H339.037V295.268H343.132C344.492 295.268 345.562 295.593 346.342 296.243C347.122 296.893 347.512 297.788 347.512 298.928C347.512 299.738 347.312 300.428 346.912 300.998C346.512 301.568 345.942 301.983 345.202 302.243L347.692 305.768H346.057ZM343.087 301.298C344.037 301.298 344.762 301.093 345.262 300.683C345.762 300.273 346.012 299.688 346.012 298.928C346.012 298.168 345.762 297.588 345.262 297.188C344.762 296.778 344.037 296.573 343.087 296.573H340.537V301.298H343.087ZM354.286 305.888C352.886 305.888 351.796 305.488 351.016 304.688C350.236 303.888 349.846 302.738 349.846 301.238V295.268H351.346V301.178C351.346 303.428 352.331 304.553 354.301 304.553C355.261 304.553 355.996 304.278 356.506 303.728C357.016 303.168 357.271 302.318 357.271 301.178V295.268H358.726V301.238C358.726 302.748 358.336 303.903 357.556 304.703C356.776 305.493 355.686 305.888 354.286 305.888ZM368.866 300.323C369.476 300.493 369.956 300.803 370.306 301.253C370.656 301.693 370.831 302.253 370.831 302.933C370.831 303.843 370.486 304.543 369.796 305.033C369.116 305.523 368.121 305.768 366.811 305.768H361.801V295.268H366.511C367.711 295.268 368.636 295.508 369.286 295.988C369.946 296.468 370.276 297.133 370.276 297.983C370.276 298.533 370.146 299.008 369.886 299.408C369.636 299.808 369.296 300.113 368.866 300.323ZM363.301 296.483V299.843H366.376C367.146 299.843 367.736 299.703 368.146 299.423C368.566 299.133 368.776 298.713 368.776 298.163C368.776 297.613 368.566 297.198 368.146 296.918C367.736 296.628 367.146 296.483 366.376 296.483H363.301ZM366.751 304.553C367.601 304.553 368.241 304.413 368.671 304.133C369.101 303.853 369.316 303.413 369.316 302.813C369.316 301.643 368.461 301.058 366.751 301.058H363.301V304.553H366.751Z" fill="black"/>
<path d="M303.402 347.576V358.076H301.917V348.881H299.547V347.576H303.402ZM309.989 358.196C309.159 358.196 308.419 357.986 307.769 357.566C307.129 357.136 306.624 356.516 306.254 355.706C305.884 354.896 305.699 353.936 305.699 352.826C305.699 351.716 305.884 350.756 306.254 349.946C306.624 349.136 307.129 348.521 307.769 348.101C308.419 347.671 309.159 347.456 309.989 347.456C310.809 347.456 311.539 347.671 312.179 348.101C312.829 348.521 313.339 349.136 313.709 349.946C314.079 350.756 314.264 351.716 314.264 352.826C314.264 353.936 314.079 354.896 313.709 355.706C313.339 356.516 312.829 357.136 312.179 357.566C311.539 357.986 310.809 358.196 309.989 358.196ZM309.989 356.861C310.829 356.861 311.499 356.516 311.999 355.826C312.509 355.136 312.764 354.136 312.764 352.826C312.764 351.516 312.509 350.516 311.999 349.826C311.499 349.136 310.829 348.791 309.989 348.791C309.139 348.791 308.459 349.136 307.949 349.826C307.449 350.516 307.199 351.516 307.199 352.826C307.199 354.136 307.449 355.136 307.949 355.826C308.459 356.516 309.139 356.861 309.989 356.861ZM319.994 358.196C319.164 358.196 318.424 357.986 317.774 357.566C317.134 357.136 316.629 356.516 316.259 355.706C315.889 354.896 315.704 353.936 315.704 352.826C315.704 351.716 315.889 350.756 316.259 349.946C316.629 349.136 317.134 348.521 317.774 348.101C318.424 347.671 319.164 347.456 319.994 347.456C320.814 347.456 321.544 347.671 322.184 348.101C322.834 348.521 323.344 349.136 323.714 349.946C324.084 350.756 324.269 351.716 324.269 352.826C324.269 353.936 324.084 354.896 323.714 355.706C323.344 356.516 322.834 357.136 322.184 357.566C321.544 357.986 320.814 358.196 319.994 358.196ZM319.994 356.861C320.834 356.861 321.504 356.516 322.004 355.826C322.514 355.136 322.769 354.136 322.769 352.826C322.769 351.516 322.514 350.516 322.004 349.826C321.504 349.136 320.834 348.791 319.994 348.791C319.144 348.791 318.464 349.136 317.954 349.826C317.454 350.516 317.204 351.516 317.204 352.826C317.204 354.136 317.454 355.136 317.954 355.826C318.464 356.516 319.144 356.861 319.994 356.861ZM329.999 358.196C329.169 358.196 328.429 357.986 327.779 357.566C327.139 357.136 326.634 356.516 326.264 355.706C325.894 354.896 325.709 353.936 325.709 352.826C325.709 351.716 325.894 350.756 326.264 349.946C326.634 349.136 327.139 348.521 327.779 348.101C328.429 347.671 329.169 347.456 329.999 347.456C330.819 347.456 331.549 347.671 332.189 348.101C332.839 348.521 333.349 349.136 333.719 349.946C334.089 350.756 334.274 351.716 334.274 352.826C334.274 353.936 334.089 354.896 333.719 355.706C333.349 356.516 332.839 357.136 332.189 357.566C331.549 357.986 330.819 358.196 329.999 358.196ZM329.999 356.861C330.839 356.861 331.509 356.516 332.009 355.826C332.519 355.136 332.774 354.136 332.774 352.826C332.774 351.516 332.519 350.516 332.009 349.826C331.509 349.136 330.839 348.791 329.999 348.791C329.149 348.791 328.469 349.136 327.959 349.826C327.459 350.516 327.209 351.516 327.209 352.826C327.209 354.136 327.459 355.136 327.959 355.826C328.469 356.516 329.149 356.861 329.999 356.861ZM347.617 358.076L345.352 354.851C345.072 354.871 344.852 354.881 344.692 354.881H342.097V358.076H340.597V347.576H344.692C346.052 347.576 347.122 347.901 347.902 348.551C348.682 349.201 349.072 350.096 349.072 351.236C349.072 352.046 348.872 352.736 348.472 353.306C348.072 353.876 347.502 354.291 346.762 354.551L349.252 358.076H347.617ZM344.647 353.606C345.597 353.606 346.322 353.401 346.822 352.991C347.322 352.581 347.572 351.996 347.572 351.236C347.572 350.476 347.322 349.896 346.822 349.496C346.322 349.086 345.597 348.881 344.647 348.881H342.097V353.606H344.647ZM355.845 358.196C354.445 358.196 353.355 357.796 352.575 356.996C351.795 356.196 351.405 355.046 351.405 353.546V347.576H352.905V353.486C352.905 355.736 353.89 356.861 355.86 356.861C356.82 356.861 357.555 356.586 358.065 356.036C358.575 355.476 358.83 354.626 358.83 353.486V347.576H360.285V353.546C360.285 355.056 359.895 356.211 359.115 357.011C358.335 357.801 357.245 358.196 355.845 358.196ZM370.425 352.631C371.035 352.801 371.515 353.111 371.865 353.561C372.215 354.001 372.39 354.561 372.39 355.241C372.39 356.151 372.045 356.851 371.355 357.341C370.675 357.831 369.68 358.076 368.37 358.076H363.36V347.576H368.07C369.27 347.576 370.195 347.816 370.845 348.296C371.505 348.776 371.835 349.441 371.835 350.291C371.835 350.841 371.705 351.316 371.445 351.716C371.195 352.116 370.855 352.421 370.425 352.631ZM364.86 348.791V352.151H367.935C368.705 352.151 369.295 352.011 369.705 351.731C370.125 351.441 370.335 351.021 370.335 350.471C370.335 349.921 370.125 349.506 369.705 349.226C369.295 348.936 368.705 348.791 367.935 348.791H364.86ZM368.31 356.861C369.16 356.861 369.8 356.721 370.23 356.441C370.66 356.161 370.875 355.721 370.875 355.121C370.875 353.951 370.02 353.366 368.31 353.366H364.86V356.861H368.31Z" fill="black"/>
</svg>
